<svg xmlns="http://www.w3.org/2000/svg" width="236" height="224" viewBox="0 0 236 224" fill="none"><g clip-path="url(#clip0_586_9719)"><rect x="2.01686" y="2.01686" width="231.966" height="219.966" rx="21.7109" fill="white" stroke="#666C71" stroke-width="4.03372"></rect><path d="M5.34058e-05 177.541H236V200.272C236 213.377 225.377 224 212.272 224H23.7278C10.6233 224 5.34058e-05 213.377 5.34058e-05 200.272V177.541Z" fill="#666C71"></path><path d="M153.299 71.5698C153.239 69.1364 152.962 66.713 152.473 64.3276H119.218V78.0092H137.879C137.558 80.1546 136.795 82.2116 135.637 84.0523C134.48 85.893 132.953 87.4779 131.152 88.7086V97.6057H142.721C149.448 91.4449 153.316 82.3348 153.316 71.5698H153.299Z" fill="#0081C6"></path><path d="M119.119 106.158C127.794 106.394 136.231 103.335 142.705 97.6054L131.135 88.7084C128.381 90.4555 125.26 91.5565 122.012 91.9273C118.763 92.2981 115.472 91.9291 112.39 90.8482C109.307 89.7673 106.513 88.0032 104.222 85.6902C101.931 83.3772 100.203 80.5763 99.1694 77.501H87.3187V86.6602C90.2708 92.5164 94.8093 97.4423 100.426 100.886C106.042 104.33 112.515 106.155 119.119 106.158V106.158Z" fill="#00AE57"></path><path d="M99.169 77.5012C97.6924 73.131 97.6924 68.4029 99.169 64.0327V54.8734H87.3183C84.8181 59.8049 83.5159 65.2477 83.5159 70.7669C83.5159 76.2862 84.8181 81.729 87.3183 86.6604L99.169 77.5012Z" fill="#FBAB18"></path><path d="M119.119 49.4498C124.179 49.3735 129.065 51.2747 132.722 54.7422L142.936 44.5998C136.502 38.583 127.964 35.2759 119.119 35.375C112.515 35.3781 106.042 37.2037 100.426 40.6475C94.8093 44.0912 90.2708 49.017 87.3187 54.8732L99.1694 64.0325C100.535 59.8399 103.193 56.1778 106.769 53.5617C110.345 50.9456 114.659 49.5075 119.102 49.4498H119.119Z" fill="#F04931"></path><path d="M40.8998 142.941C39.5423 142.153 38.4166 141.025 37.6343 139.672C36.852 138.319 36.4405 136.786 36.4405 135.226C36.4405 133.666 36.852 132.133 37.6343 130.78C38.4166 129.426 39.5423 128.299 40.8998 127.51C42.2552 126.742 43.7908 126.342 45.352 126.349C46.5683 126.344 47.7738 126.575 48.9004 127.029C49.9521 127.422 50.8934 128.059 51.6454 128.887L50.1892 130.348C49.6278 129.673 48.9099 129.144 48.097 128.805C47.1182 128.405 46.0615 128.227 45.0044 128.284C43.9474 128.342 42.9166 128.633 41.9878 129.136C40.9445 129.718 40.0776 130.566 39.4771 131.592C38.8265 132.693 38.4963 133.95 38.5231 135.226C38.4984 136.506 38.8284 137.769 39.4771 138.876C40.0845 139.899 40.9573 140.741 42.0045 141.315C43.0269 141.884 44.1799 142.181 45.352 142.178C46.3443 142.207 47.3314 142.026 48.2476 141.647C48.9974 141.309 49.6738 140.83 50.2394 140.237C50.6784 139.753 51.0193 139.189 51.2437 138.578C51.5087 137.914 51.6723 137.215 51.729 136.503H45.4022V134.678H53.6371C53.7145 135.089 53.7537 135.505 53.7543 135.923C53.7565 136.955 53.5868 137.981 53.2522 138.959C52.9087 139.946 52.3352 140.838 51.5784 141.564C50.7747 142.41 49.7966 143.075 48.7106 143.513C47.6247 143.951 46.4564 144.152 45.2851 144.103C43.7455 144.106 42.2325 143.706 40.8998 142.941Z" fill="#666C71"></path><path d="M58.7923 143.257C57.8439 142.694 57.0685 141.885 56.5495 140.917C56.0215 139.916 55.7458 138.803 55.7458 137.673C55.7458 136.544 56.0215 135.431 56.5495 134.429C57.084 133.452 57.8746 132.637 58.838 132.068C59.8013 131.5 60.9016 131.2 62.0227 131.2C63.1437 131.2 64.244 131.5 65.2074 132.068C66.1707 132.637 66.9614 133.452 67.4959 134.429C68.0238 135.431 68.2995 136.544 68.2995 137.673C68.2995 138.803 68.0238 139.916 67.4959 140.917C66.9769 141.885 66.2014 142.694 65.253 143.257C64.2682 143.811 63.1551 144.102 62.0227 144.102C60.8902 144.102 59.7772 143.811 58.7923 143.257ZM64.1149 141.714C64.7855 141.322 65.3264 140.746 65.6715 140.054C66.0708 139.284 66.2792 138.431 66.2792 137.565C66.2792 136.7 66.0708 135.846 65.6715 135.077C65.3143 134.426 64.7871 133.882 64.1451 133.503C63.5032 133.123 62.7701 132.922 62.0227 132.919C61.2809 132.913 60.5517 133.108 59.9137 133.484C59.2423 133.879 58.6969 134.454 58.3404 135.143C57.941 135.913 57.7327 136.766 57.7327 137.632C57.7327 138.498 57.941 139.351 58.3404 140.121C58.6969 140.809 59.2423 141.385 59.9137 141.78C60.5517 142.155 61.2809 142.35 62.0227 142.344C62.7655 142.33 63.4897 142.111 64.1149 141.714Z" fill="#666C71"></path><path d="M73.036 143.257C72.0876 142.694 71.3122 141.885 70.7932 140.917C70.2652 139.916 69.9895 138.803 69.9895 137.673C69.9895 136.544 70.2652 135.431 70.7932 134.429C71.3277 133.452 72.1183 132.637 73.0816 132.068C74.045 131.5 75.1453 131.2 76.2664 131.2C77.3874 131.2 78.4877 131.5 79.4511 132.068C80.4144 132.637 81.2051 133.452 81.7395 134.429C82.2568 135.434 82.5264 136.546 82.5264 137.673C82.5264 138.801 82.2568 139.913 81.7395 140.917C81.2343 141.878 80.4768 142.687 79.5469 143.257C78.5621 143.811 77.449 144.102 76.3166 144.102C75.1841 144.102 74.0711 143.811 73.0862 143.257H73.036ZM78.3586 141.714C79.025 141.317 79.5646 140.742 79.9151 140.054C80.3145 139.284 80.5229 138.431 80.5229 137.565C80.5229 136.7 80.3145 135.846 79.9151 135.077C79.5646 134.389 79.025 133.814 78.3586 133.417C77.6852 133.105 76.9378 132.985 76.1994 133.069C75.4577 133.063 74.7284 133.258 74.0905 133.633C73.419 134.028 72.8737 134.603 72.5171 135.292C72.1178 136.062 71.9094 136.915 71.9094 137.781C71.9094 138.647 72.1178 139.5 72.5171 140.27C72.8737 140.959 73.419 141.534 74.0905 141.929C74.7284 142.304 75.4577 142.5 76.1994 142.493C76.9804 142.447 77.7308 142.176 78.3586 141.714Z" fill="#666C71"></path><path d="M86.6939 148.234C85.8177 147.656 85.1542 146.812 84.8025 145.829L86.6437 145.049C86.9178 145.724 87.3901 146.302 87.9994 146.708C88.6564 147.161 89.4423 147.393 90.2422 147.372C90.7766 147.405 91.3123 147.33 91.816 147.15C92.3198 146.97 92.7811 146.69 93.1713 146.326C93.535 145.921 93.814 145.449 93.9921 144.936C94.1702 144.423 94.244 143.881 94.209 143.34V141.979H94.1086C93.6948 142.62 93.1173 143.141 92.4349 143.489C91.5935 143.907 90.6583 144.105 89.718 144.065C88.7777 144.024 87.8635 143.746 87.0621 143.257C86.1871 142.712 85.476 141.944 85.0034 141.033C84.4739 140.007 84.2093 138.867 84.2334 137.715C84.2141 136.563 84.4784 135.424 85.0034 134.396C85.466 133.461 86.178 132.669 87.0621 132.106C87.8635 131.617 88.7777 131.339 89.718 131.298C90.6583 131.258 91.5935 131.456 92.4349 131.874C93.1218 132.224 93.7002 132.751 94.1086 133.401H94.209V131.741H96.1506V143.356C96.2001 144.141 96.0892 144.928 95.8246 145.669C95.56 146.41 95.1472 147.091 94.6107 147.67C93.4398 148.717 91.9009 149.265 90.3259 149.197C89.0417 149.278 87.7661 148.94 86.6939 148.234ZM92.234 141.73C92.859 141.319 93.3571 140.745 93.6734 140.071C94.0313 139.289 94.2164 138.441 94.2164 137.582C94.2164 136.723 94.0313 135.875 93.6734 135.093C93.3699 134.411 92.8689 133.834 92.234 133.434C91.6357 133.068 90.945 132.878 90.2422 132.886C89.5316 132.876 88.8335 133.073 88.2337 133.45C87.6141 133.836 87.1111 134.381 86.7776 135.027C86.4176 135.808 86.2313 136.657 86.2313 137.516C86.2313 138.374 86.4176 139.223 86.7776 140.005C87.0907 140.686 87.5965 141.262 88.2337 141.664C88.8383 142.029 89.5342 142.219 90.2422 142.211C90.9385 142.239 91.6287 142.073 92.234 141.73Z" fill="#666C71"></path><path d="M99.1466 126.73H101.172V143.721H99.1466V126.73Z" fill="#666C71"></path><path d="M106.494 143.273C105.571 142.744 104.817 141.968 104.319 141.033C103.788 140.007 103.524 138.867 103.549 137.715C103.522 136.568 103.768 135.431 104.268 134.396C104.745 133.475 105.454 132.692 106.327 132.123C107.255 131.533 108.338 131.227 109.44 131.244C110.533 131.214 111.612 131.49 112.553 132.04C113.424 132.566 114.126 133.325 114.579 134.23C115.062 135.229 115.302 136.325 115.282 137.433C115.31 137.636 115.31 137.843 115.282 138.047H105.574C105.601 138.864 105.831 139.661 106.243 140.37C106.61 140.974 107.137 141.468 107.766 141.797C108.359 142.109 109.02 142.274 109.691 142.278C110.442 142.291 111.18 142.092 111.82 141.704C112.461 141.316 112.976 140.755 113.307 140.087L114.98 140.917C114.488 141.872 113.749 142.679 112.838 143.257C111.864 143.807 110.762 144.096 109.641 144.096C108.52 144.096 107.418 143.807 106.444 143.257L106.494 143.273ZM113.189 136.387C113.153 135.861 113.01 135.348 112.771 134.877C112.493 134.346 112.069 133.903 111.549 133.6C110.929 133.23 110.214 133.046 109.49 133.069C108.592 133.048 107.722 133.375 107.064 133.981C106.378 134.623 105.92 135.467 105.758 136.387H113.189Z" fill="#666C71"></path><path d="M122.663 126.73H128.437C129.365 126.724 130.28 126.946 131.099 127.378C131.917 127.788 132.61 128.406 133.107 129.17C133.596 129.955 133.855 130.86 133.855 131.783C133.855 132.706 133.596 133.611 133.107 134.396C132.628 135.151 131.959 135.768 131.166 136.188C130.346 136.619 129.432 136.842 128.504 136.835H124.738V143.754H122.73L122.663 126.73ZM128.488 134.877C129.077 134.886 129.657 134.731 130.161 134.429C130.629 134.138 131.019 133.739 131.3 133.268C131.562 132.81 131.7 132.293 131.7 131.766C131.7 131.24 131.562 130.722 131.3 130.265C131.019 129.793 130.629 129.395 130.161 129.103C129.657 128.801 129.077 128.646 128.488 128.655H124.738V134.877H128.488Z" fill="#666C71"></path><path d="M137.861 143.589C137.175 143.277 136.594 142.775 136.187 142.145C135.801 141.522 135.603 140.802 135.618 140.071C135.593 139.49 135.712 138.912 135.966 138.388C136.22 137.865 136.601 137.411 137.074 137.068C138.173 136.334 139.484 135.978 140.807 136.055C141.494 136.052 142.18 136.13 142.848 136.288C143.357 136.404 143.846 136.588 144.305 136.835V136.055C144.321 135.645 144.244 135.237 144.079 134.86C143.914 134.484 143.665 134.149 143.351 133.882C142.672 133.321 141.807 133.031 140.924 133.069C140.267 133.058 139.618 133.206 139.032 133.5C138.477 133.781 138.009 134.205 137.677 134.728L136.137 133.583C136.637 132.868 137.318 132.296 138.112 131.924C138.982 131.505 139.94 131.295 140.907 131.31C142.331 131.23 143.732 131.693 144.824 132.604C145.292 133.048 145.66 133.585 145.905 134.18C146.15 134.774 146.266 135.413 146.246 136.055V143.721H144.305V142.062H144.204C143.814 142.683 143.273 143.196 142.631 143.555C141.911 143.973 141.088 144.185 140.254 144.169C139.421 144.165 138.601 143.966 137.861 143.589ZM142.363 141.797C142.947 141.456 143.435 140.977 143.786 140.403C144.127 139.818 144.306 139.154 144.305 138.478C143.871 138.203 143.396 137.996 142.899 137.864C142.318 137.73 141.72 137.68 141.125 137.715C140.228 137.646 139.335 137.886 138.597 138.395C138.326 138.605 138.108 138.875 137.96 139.183C137.812 139.491 137.738 139.829 137.744 140.17C137.729 140.488 137.791 140.804 137.925 141.093C138.059 141.381 138.261 141.634 138.513 141.83C139.07 142.25 139.756 142.467 140.455 142.444C141.14 142.41 141.801 142.186 142.363 141.797Z" fill="#666C71"></path><path d="M148.723 131.808H150.665V133.733H150.765C151.046 133.031 151.56 132.446 152.222 132.073C153.175 131.534 154.291 131.352 155.368 131.559V133.616C155.005 133.543 154.634 133.509 154.264 133.517C153.793 133.502 153.325 133.587 152.889 133.764C152.454 133.941 152.061 134.208 151.736 134.546C151.406 134.903 151.151 135.322 150.984 135.777C150.817 136.233 150.743 136.716 150.765 137.2V143.837H148.723V131.808ZM161.109 143.854C160.714 143.719 160.353 143.498 160.055 143.207C159.742 142.907 159.497 142.545 159.335 142.145C159.161 141.672 159.082 141.171 159.101 140.668V133.45H156.958V131.625H159.101V128.207H161.126V131.625H164.105V133.45H161.126V140.187C161.088 140.718 161.223 141.247 161.511 141.697C161.678 141.877 161.884 142.017 162.112 142.109C162.341 142.201 162.587 142.241 162.833 142.228C163.308 142.222 163.772 142.084 164.172 141.83V143.788C163.938 143.9 163.691 143.984 163.436 144.037C163.124 144.066 162.81 144.066 162.498 144.037C162.028 144.062 161.557 144 161.109 143.854Z" fill="#666C71"></path><path d="M166.415 131.625H168.357V133.401H168.457C168.858 132.745 169.438 132.216 170.131 131.874C170.841 131.46 171.65 131.242 172.474 131.244C173.09 131.205 173.708 131.298 174.285 131.515C174.863 131.733 175.386 132.07 175.822 132.505C176.636 133.474 177.049 134.713 176.976 135.973V143.721H174.951V136.271C174.993 135.832 174.943 135.388 174.805 134.969C174.667 134.549 174.443 134.162 174.148 133.832C173.535 133.298 172.736 133.024 171.922 133.069C171.292 133.062 170.676 133.253 170.164 133.616C169.646 133.982 169.232 134.474 168.959 135.043C168.667 135.626 168.518 136.268 168.524 136.918V143.721H166.415V131.625Z" fill="#666C71"></path><path d="M182.148 143.273C181.225 142.744 180.471 141.968 179.972 141.033C179.442 140.007 179.178 138.867 179.203 137.715C179.191 136.564 179.455 135.427 179.972 134.396C180.439 133.445 181.156 132.636 182.048 132.057C182.974 131.462 184.058 131.156 185.161 131.177C186.253 131.152 187.331 131.428 188.274 131.974C189.145 132.499 189.847 133.259 190.3 134.164C190.783 135.162 191.023 136.259 191.003 137.366C191.023 137.57 191.023 137.776 191.003 137.98H181.345C181.372 138.797 181.602 139.595 182.014 140.303C182.377 140.911 182.905 141.405 183.538 141.73C184.13 142.043 184.791 142.208 185.462 142.211C186.213 142.224 186.951 142.025 187.591 141.637C188.232 141.25 188.747 140.689 189.078 140.021L190.751 140.851C190.259 141.805 189.52 142.613 188.609 143.19C187.635 143.74 186.533 144.029 185.412 144.029C184.372 144.029 183.215 143.862 182.148 143.273ZM188.843 136.387C188.808 135.859 188.66 135.344 188.408 134.877C188.142 134.344 187.723 133.899 187.203 133.6C186.583 133.23 185.868 133.046 185.144 133.069C184.242 133.051 183.367 133.377 182.701 133.981C182.026 134.631 181.57 135.471 181.395 136.387H188.843Z" fill="#666C71"></path><path d="M193.363 131.625H195.304V133.567H195.405C195.664 132.878 196.147 132.294 196.777 131.907C197.414 131.477 198.166 131.246 198.936 131.244C199.43 131.226 199.921 131.316 200.376 131.509V133.666C199.853 133.417 199.281 133.287 198.702 133.285C198.105 133.27 197.519 133.444 197.028 133.782C196.523 134.123 196.114 134.586 195.84 135.126C195.543 135.689 195.393 136.317 195.405 136.951V143.721H193.363V131.625Z" fill="#666C71"></path><path d="M40.8998 142.941C39.5423 142.153 38.4166 141.025 37.6343 139.672C36.852 138.319 36.4405 136.786 36.4405 135.226C36.4405 133.666 36.852 132.133 37.6343 130.78C38.4166 129.426 39.5423 128.299 40.8998 127.51C42.2552 126.742 43.7908 126.342 45.352 126.349C46.5683 126.344 47.7738 126.575 48.9004 127.029C49.9521 127.422 50.8934 128.059 51.6454 128.887L50.1892 130.348C49.6278 129.673 48.9099 129.144 48.097 128.805C47.1182 128.405 46.0615 128.227 45.0044 128.284C43.9474 128.342 42.9166 128.633 41.9878 129.136C40.9445 129.718 40.0776 130.566 39.4771 131.592C38.8265 132.693 38.4963 133.95 38.5231 135.226C38.4984 136.506 38.8284 137.769 39.4771 138.876C40.0845 139.899 40.9573 140.741 42.0045 141.315C43.0269 141.884 44.1799 142.181 45.352 142.178C46.3443 142.207 47.3314 142.026 48.2476 141.647C48.9974 141.309 49.6738 140.83 50.2394 140.237C50.6784 139.753 51.0193 139.189 51.2437 138.578C51.5087 137.914 51.6723 137.215 51.729 136.503H45.4022V134.678H53.6371C53.7145 135.089 53.7537 135.505 53.7543 135.923C53.7565 136.955 53.5868 137.981 53.2522 138.959C52.9087 139.946 52.3352 140.838 51.5784 141.564C50.7747 142.41 49.7966 143.075 48.7106 143.513C47.6247 143.951 46.4564 144.152 45.2851 144.103C43.7455 144.106 42.2325 143.706 40.8998 142.941Z" stroke="#666C71" stroke-width="1.48299"></path><path d="M58.7923 143.257C57.8439 142.694 57.0685 141.885 56.5495 140.917C56.0215 139.916 55.7458 138.803 55.7458 137.673C55.7458 136.544 56.0215 135.431 56.5495 134.429C57.084 133.452 57.8746 132.637 58.838 132.068C59.8013 131.5 60.9016 131.2 62.0227 131.2C63.1437 131.2 64.244 131.5 65.2074 132.068C66.1707 132.637 66.9614 133.452 67.4959 134.429C68.0238 135.431 68.2995 136.544 68.2995 137.673C68.2995 138.803 68.0238 139.916 67.4959 140.917C66.9769 141.885 66.2014 142.694 65.253 143.257C64.2682 143.811 63.1551 144.102 62.0227 144.102C60.8902 144.102 59.7772 143.811 58.7923 143.257ZM64.1149 141.714C64.7855 141.322 65.3264 140.746 65.6715 140.054C66.0708 139.284 66.2792 138.431 66.2792 137.565C66.2792 136.7 66.0708 135.846 65.6715 135.077C65.3143 134.426 64.7871 133.882 64.1451 133.503C63.5032 133.123 62.7701 132.922 62.0227 132.919C61.2809 132.913 60.5517 133.108 59.9137 133.484C59.2423 133.879 58.6969 134.454 58.3404 135.143C57.941 135.913 57.7327 136.766 57.7327 137.632C57.7327 138.498 57.941 139.351 58.3404 140.121C58.6969 140.809 59.2423 141.385 59.9137 141.78C60.5517 142.155 61.2809 142.35 62.0227 142.344C62.7655 142.33 63.4897 142.111 64.1149 141.714Z" stroke="#666C71" stroke-width="1.48299"></path><path d="M73.036 143.257C72.0876 142.694 71.3122 141.885 70.7932 140.917C70.2652 139.916 69.9895 138.803 69.9895 137.673C69.9895 136.544 70.2652 135.431 70.7932 134.429C71.3277 133.452 72.1183 132.637 73.0816 132.068C74.045 131.5 75.1453 131.2 76.2664 131.2C77.3874 131.2 78.4877 131.5 79.4511 132.068C80.4144 132.637 81.2051 133.452 81.7395 134.429C82.2568 135.434 82.5264 136.546 82.5264 137.673C82.5264 138.801 82.2568 139.913 81.7395 140.917C81.2343 141.878 80.4768 142.687 79.5469 143.257C78.5621 143.811 77.449 144.102 76.3166 144.102C75.1841 144.102 74.0711 143.811 73.0862 143.257H73.036ZM78.3586 141.714C79.025 141.317 79.5646 140.742 79.9151 140.054C80.3145 139.284 80.5229 138.431 80.5229 137.565C80.5229 136.7 80.3145 135.846 79.9151 135.077C79.5646 134.389 79.025 133.814 78.3586 133.417C77.6852 133.105 76.9378 132.985 76.1994 133.069C75.4577 133.063 74.7284 133.258 74.0905 133.633C73.419 134.028 72.8737 134.603 72.5171 135.292C72.1178 136.062 71.9094 136.915 71.9094 137.781C71.9094 138.647 72.1178 139.5 72.5171 140.27C72.8737 140.959 73.419 141.534 74.0905 141.929C74.7284 142.304 75.4577 142.5 76.1994 142.493C76.9804 142.447 77.7308 142.176 78.3586 141.714Z" stroke="#666C71" stroke-width="1.48299"></path><path d="M86.6939 148.234C85.8177 147.656 85.1542 146.812 84.8025 145.829L86.6437 145.049C86.9178 145.724 87.3901 146.302 87.9994 146.708C88.6564 147.161 89.4423 147.393 90.2422 147.372C90.7766 147.405 91.3123 147.33 91.816 147.15C92.3198 146.97 92.7811 146.69 93.1713 146.326C93.535 145.921 93.814 145.449 93.9921 144.936C94.1702 144.423 94.244 143.881 94.209 143.34V141.979H94.1086C93.6948 142.62 93.1173 143.141 92.4349 143.489C91.5935 143.907 90.6583 144.105 89.718 144.065C88.7777 144.024 87.8635 143.746 87.0621 143.257C86.1871 142.712 85.476 141.944 85.0034 141.033C84.4739 140.007 84.2093 138.867 84.2334 137.715C84.2141 136.563 84.4784 135.424 85.0034 134.396C85.466 133.461 86.178 132.669 87.0621 132.106C87.8635 131.617 88.7777 131.339 89.718 131.298C90.6583 131.258 91.5935 131.456 92.4349 131.874C93.1218 132.224 93.7002 132.751 94.1086 133.401H94.209V131.741H96.1506V143.356C96.2001 144.141 96.0892 144.928 95.8246 145.669C95.56 146.41 95.1472 147.091 94.6107 147.67C93.4398 148.717 91.9009 149.265 90.3259 149.197C89.0417 149.278 87.7661 148.94 86.6939 148.234ZM92.234 141.73C92.859 141.319 93.3571 140.745 93.6734 140.071C94.0313 139.289 94.2164 138.441 94.2164 137.582C94.2164 136.723 94.0313 135.875 93.6734 135.093C93.3699 134.411 92.8689 133.834 92.234 133.434C91.6357 133.068 90.945 132.878 90.2422 132.886C89.5316 132.876 88.8335 133.073 88.2337 133.45C87.6141 133.836 87.1111 134.381 86.7776 135.027C86.4176 135.808 86.2313 136.657 86.2313 137.516C86.2313 138.374 86.4176 139.223 86.7776 140.005C87.0907 140.686 87.5965 141.262 88.2337 141.664C88.8383 142.029 89.5342 142.219 90.2422 142.211C90.9385 142.239 91.6287 142.073 92.234 141.73Z" stroke="#666C71" stroke-width="1.48299"></path><path d="M99.1466 126.73H101.172V143.721H99.1466V126.73Z" stroke="#666C71" stroke-width="1.48299"></path><path d="M106.494 143.273C105.571 142.744 104.817 141.968 104.319 141.033C103.788 140.007 103.524 138.867 103.549 137.715C103.522 136.568 103.768 135.431 104.268 134.396C104.745 133.475 105.454 132.692 106.327 132.123C107.255 131.533 108.338 131.227 109.44 131.244C110.533 131.214 111.612 131.49 112.553 132.04C113.424 132.566 114.126 133.325 114.579 134.23C115.062 135.229 115.302 136.325 115.282 137.433C115.31 137.636 115.31 137.843 115.282 138.047H105.574C105.601 138.864 105.831 139.661 106.243 140.37C106.61 140.974 107.137 141.468 107.766 141.797C108.359 142.109 109.02 142.274 109.691 142.278C110.442 142.291 111.18 142.092 111.82 141.704C112.461 141.316 112.976 140.755 113.307 140.087L114.98 140.917C114.488 141.872 113.749 142.679 112.838 143.257C111.864 143.807 110.762 144.096 109.641 144.096C108.52 144.096 107.418 143.807 106.444 143.257L106.494 143.273ZM113.189 136.387C113.153 135.861 113.01 135.348 112.771 134.877C112.493 134.346 112.069 133.903 111.549 133.6C110.929 133.23 110.214 133.046 109.49 133.069C108.592 133.048 107.722 133.375 107.064 133.981C106.378 134.623 105.92 135.467 105.758 136.387H113.189Z" stroke="#666C71" stroke-width="1.48299"></path><path d="M122.663 126.73H128.437C129.365 126.724 130.28 126.946 131.099 127.378C131.917 127.788 132.61 128.406 133.107 129.17C133.596 129.955 133.855 130.86 133.855 131.783C133.855 132.706 133.596 133.611 133.107 134.396C132.628 135.151 131.959 135.768 131.166 136.188C130.346 136.619 129.432 136.842 128.504 136.835H124.738V143.754H122.73L122.663 126.73ZM128.488 134.877C129.077 134.886 129.657 134.731 130.161 134.429C130.629 134.138 131.019 133.739 131.3 133.268C131.562 132.81 131.7 132.293 131.7 131.766C131.7 131.24 131.562 130.722 131.3 130.265C131.019 129.793 130.629 129.395 130.161 129.103C129.657 128.801 129.077 128.646 128.488 128.655H124.738V134.877H128.488Z" stroke="#666C71" stroke-width="1.48299"></path><path d="M137.861 143.589C137.175 143.277 136.594 142.775 136.187 142.145C135.801 141.522 135.603 140.802 135.618 140.071C135.593 139.49 135.712 138.912 135.966 138.388C136.22 137.865 136.601 137.411 137.074 137.068C138.173 136.334 139.484 135.978 140.807 136.055C141.494 136.052 142.18 136.13 142.848 136.288C143.357 136.404 143.846 136.588 144.305 136.835V136.055C144.321 135.645 144.244 135.237 144.079 134.86C143.914 134.484 143.665 134.149 143.351 133.882C142.672 133.321 141.807 133.031 140.924 133.069C140.267 133.058 139.618 133.206 139.032 133.5C138.477 133.781 138.009 134.205 137.677 134.728L136.137 133.583C136.637 132.868 137.318 132.296 138.112 131.924C138.982 131.505 139.94 131.295 140.907 131.31C142.331 131.23 143.732 131.693 144.824 132.604C145.292 133.048 145.66 133.585 145.905 134.18C146.15 134.774 146.266 135.413 146.246 136.055V143.721H144.305V142.062H144.204C143.814 142.683 143.273 143.196 142.631 143.555C141.911 143.973 141.088 144.185 140.254 144.169C139.421 144.165 138.601 143.966 137.861 143.589ZM142.363 141.797C142.947 141.456 143.435 140.977 143.786 140.403C144.127 139.818 144.306 139.154 144.305 138.478C143.871 138.203 143.396 137.996 142.899 137.864C142.318 137.73 141.72 137.68 141.125 137.715C140.228 137.646 139.335 137.886 138.597 138.395C138.326 138.605 138.108 138.875 137.96 139.183C137.812 139.491 137.738 139.829 137.744 140.17C137.729 140.488 137.791 140.804 137.925 141.093C138.059 141.381 138.261 141.634 138.513 141.83C139.07 142.25 139.756 142.467 140.455 142.444C141.14 142.41 141.801 142.186 142.363 141.797Z" stroke="#666C71" stroke-width="1.48299"></path><path d="M148.723 131.808H150.665V133.733H150.765C151.046 133.031 151.56 132.446 152.222 132.073C153.175 131.534 154.291 131.352 155.368 131.559V133.616C155.005 133.543 154.634 133.509 154.264 133.517C153.793 133.502 153.325 133.587 152.889 133.764C152.454 133.941 152.061 134.208 151.736 134.546C151.406 134.903 151.151 135.322 150.984 135.777C150.817 136.233 150.743 136.716 150.765 137.2V143.837H148.723V131.808ZM161.109 143.854C160.714 143.719 160.353 143.498 160.055 143.207C159.742 142.907 159.497 142.545 159.335 142.145C159.161 141.672 159.082 141.171 159.101 140.668V133.45H156.958V131.625H159.101V128.207H161.126V131.625H164.105V133.45H161.126V140.187C161.088 140.718 161.223 141.247 161.511 141.697C161.678 141.877 161.884 142.017 162.112 142.109C162.341 142.201 162.587 142.241 162.833 142.228C163.308 142.222 163.772 142.084 164.172 141.83V143.788C163.938 143.9 163.691 143.984 163.436 144.037C163.124 144.066 162.81 144.066 162.498 144.037C162.028 144.062 161.557 144 161.109 143.854Z" stroke="#666C71" stroke-width="1.48299"></path><path d="M166.415 131.625H168.357V133.401H168.457C168.858 132.745 169.438 132.216 170.131 131.874C170.841 131.46 171.65 131.242 172.474 131.244C173.09 131.205 173.708 131.298 174.285 131.515C174.863 131.733 175.386 132.07 175.822 132.505C176.636 133.474 177.049 134.713 176.976 135.973V143.721H174.951V136.271C174.993 135.832 174.943 135.388 174.805 134.969C174.667 134.549 174.443 134.162 174.148 133.832C173.535 133.298 172.736 133.024 171.922 133.069C171.292 133.062 170.676 133.253 170.164 133.616C169.646 133.982 169.232 134.474 168.959 135.043C168.667 135.626 168.518 136.268 168.524 136.918V143.721H166.415V131.625Z" stroke="#666C71" stroke-width="1.48299"></path><path d="M182.148 143.273C181.225 142.744 180.471 141.968 179.972 141.033C179.442 140.007 179.178 138.867 179.203 137.715C179.191 136.564 179.455 135.427 179.972 134.396C180.439 133.445 181.156 132.636 182.048 132.057C182.974 131.462 184.058 131.156 185.161 131.177C186.253 131.152 187.331 131.428 188.274 131.974C189.145 132.499 189.847 133.259 190.3 134.164C190.783 135.162 191.023 136.259 191.003 137.366C191.023 137.57 191.023 137.776 191.003 137.98H181.345C181.372 138.797 181.602 139.595 182.014 140.303C182.377 140.911 182.905 141.405 183.538 141.73C184.13 142.043 184.791 142.208 185.462 142.211C186.213 142.224 186.951 142.025 187.591 141.637C188.232 141.25 188.747 140.689 189.078 140.021L190.751 140.851C190.259 141.805 189.52 142.613 188.609 143.19C187.635 143.74 186.533 144.029 185.412 144.029C184.372 144.029 183.215 143.862 182.148 143.273ZM188.843 136.387C188.808 135.859 188.66 135.344 188.408 134.877C188.142 134.344 187.723 133.899 187.203 133.6C186.583 133.23 185.868 133.046 185.144 133.069C184.242 133.051 183.367 133.377 182.701 133.981C182.026 134.631 181.57 135.471 181.395 136.387H188.843Z" stroke="#666C71" stroke-width="1.48299"></path><path d="M193.363 131.625H195.304V133.567H195.405C195.664 132.878 196.147 132.294 196.777 131.907C197.414 131.477 198.166 131.246 198.936 131.244C199.43 131.226 199.921 131.316 200.376 131.509V133.666C199.853 133.417 199.281 133.287 198.702 133.285C198.105 133.27 197.519 133.444 197.028 133.782C196.523 134.123 196.114 134.586 195.84 135.126C195.543 135.689 195.393 136.317 195.405 136.951V143.721H193.363V131.625Z" stroke="#666C71" stroke-width="1.48299"></path><path d="M58.6257 193.229H63.3363C64.1071 193.217 64.8686 193.398 65.5511 193.753C66.2276 194.086 66.7992 194.596 67.2039 195.228C67.593 195.868 67.7987 196.602 67.7987 197.35C67.7987 198.098 67.593 198.831 67.2039 199.472C66.7992 200.104 66.2276 200.614 65.5511 200.946C64.8686 201.302 64.1071 201.482 63.3363 201.471H60.7579V206.714H58.6257V193.229ZM63.3693 199.472C63.7962 199.483 64.2185 199.381 64.5924 199.177C64.9115 198.987 65.1752 198.717 65.3578 198.396C65.5403 198.074 65.6354 197.711 65.6337 197.342C65.6345 196.986 65.5435 196.636 65.3692 196.326C65.1911 195.996 64.9216 195.723 64.5924 195.539C64.2185 195.335 63.7962 195.233 63.3693 195.244H60.7579V199.472H63.3693Z" fill="white"></path><path d="M69.5509 193.229H74.3771C75.1484 193.214 75.9107 193.394 76.5919 193.753C77.2777 194.072 77.8528 194.585 78.2447 195.228C78.639 195.863 78.8399 196.597 78.8232 197.342C78.8394 198.229 78.5278 199.091 77.9472 199.767C77.3758 200.454 76.6012 200.947 75.7324 201.176V201.274L79.3356 206.599V206.714H76.8729L73.2697 201.438H71.6169V206.714H69.5509V193.229ZM74.278 199.472C74.8854 199.496 75.4785 199.285 75.9308 198.882C76.1489 198.686 76.3211 198.445 76.4353 198.176C76.5495 197.907 76.603 197.617 76.5919 197.325C76.5927 196.97 76.5017 196.62 76.3275 196.309C76.1423 195.963 75.863 195.675 75.5212 195.478C75.1794 195.281 74.7888 195.183 74.3937 195.195H71.683V199.472H74.278Z" fill="white"></path><path d="M80.8066 193.229H89.0707V195.244H82.9388V198.964H88.4592V200.963H82.9388V204.698H89.0707V206.714H80.8066V193.229Z" fill="white"></path><path d="M91.3351 193.229H94.211L98.1282 203.453H98.2274L102.145 193.229H105.037V206.714H102.954V199.16L103.054 196.735H102.954L99.0538 206.714H97.401L93.5168 196.735H93.4011L93.5168 199.16V206.714H91.3351V193.229Z" fill="white"></path><path d="M107.797 193.229H109.929V206.714H107.797V193.229Z" fill="white"></path><path d="M112.64 193.229H120.904V195.244H114.772V198.964H120.309V200.963H114.772V204.698H120.904V206.714H112.64V193.229Z" fill="white"></path><path d="M123.168 193.229H127.962C128.738 193.215 129.505 193.396 130.193 193.753C130.854 194.094 131.407 194.609 131.789 195.243C132.171 195.877 132.368 196.603 132.358 197.342C132.368 198.231 132.051 199.093 131.466 199.767C130.894 200.454 130.12 200.947 129.251 201.176V201.274L132.97 206.599V206.714H130.573L126.986 201.438H125.334V206.714H123.168V193.229ZM127.912 199.472C128.52 199.5 129.115 199.288 129.565 198.882C129.785 198.687 129.96 198.446 130.077 198.178C130.194 197.909 130.25 197.618 130.243 197.325C130.237 196.969 130.14 196.619 129.962 196.309C129.785 195.979 129.523 195.702 129.201 195.506C128.847 195.296 128.441 195.188 128.028 195.195H125.301V199.472H127.912Z" fill="white"></path><path d="M137.846 204.813L140.242 202.437C141.432 201.258 142.226 200.438 142.622 200.012C143.04 199.598 143.406 199.136 143.713 198.636C143.921 198.248 144.024 197.813 144.011 197.374C144.015 197.132 143.966 196.892 143.866 196.671C143.766 196.45 143.618 196.254 143.432 196.096C143.012 195.721 142.459 195.527 141.895 195.556C141.362 195.529 140.839 195.711 140.44 196.064C140.084 196.382 139.831 196.799 139.713 197.26L137.812 196.49C137.956 195.999 138.198 195.542 138.523 195.146C138.903 194.688 139.376 194.314 139.912 194.048C140.535 193.732 141.228 193.574 141.928 193.589C142.692 193.573 143.448 193.748 144.126 194.097C144.741 194.395 145.257 194.862 145.614 195.441C145.957 196.016 146.135 196.673 146.126 197.342C146.13 198.09 145.93 198.826 145.548 199.472C145.152 200.177 144.656 200.822 144.077 201.389L142.143 203.175L140.589 204.715V204.797H146.258V206.681H137.846V204.813Z" fill="white"></path><path d="M150.407 206.124C149.567 205.495 148.916 204.651 148.523 203.683C147.664 201.479 147.664 199.037 148.523 196.834C148.912 195.868 149.564 195.028 150.407 194.409C151.22 193.816 152.208 193.505 153.217 193.524C154.221 193.505 155.203 193.816 156.01 194.409C156.848 195.029 157.495 195.869 157.878 196.834C158.759 199.033 158.759 201.483 157.878 203.683C157.491 204.65 156.845 205.494 156.01 206.124C155.191 206.7 154.212 207.009 153.209 207.009C152.205 207.009 151.226 206.7 150.407 206.124ZM154.919 204.485C155.426 204.041 155.812 203.478 156.043 202.847C156.304 202.059 156.433 201.235 156.423 200.406C156.431 199.571 156.303 198.741 156.043 197.948C155.812 197.317 155.426 196.754 154.919 196.309C154.441 195.908 153.835 195.687 153.209 195.687C152.582 195.687 151.976 195.908 151.498 196.309C150.996 196.755 150.616 197.319 150.39 197.948C150.117 198.739 149.983 199.57 149.994 200.406C149.982 201.236 150.116 202.062 150.39 202.847C150.616 203.476 150.996 204.04 151.498 204.485C151.971 204.897 152.579 205.124 153.209 205.124C153.838 205.124 154.446 204.897 154.919 204.485Z" fill="white"></path><path d="M159.795 204.813C160.208 204.42 161.002 203.617 162.192 202.437C163.382 201.258 164.175 200.438 164.572 200.012C164.989 199.598 165.355 199.136 165.663 198.636C165.871 198.248 165.973 197.813 165.96 197.374C165.965 197.132 165.916 196.892 165.816 196.671C165.715 196.45 165.567 196.254 165.382 196.096C164.962 195.721 164.409 195.527 163.844 195.556C163.312 195.533 162.79 195.715 162.39 196.064C162.034 196.382 161.781 196.799 161.663 197.26L159.762 196.49C159.905 195.999 160.147 195.542 160.473 195.146C160.853 194.688 161.326 194.314 161.861 194.048C162.484 193.732 163.177 193.574 163.877 193.589C164.642 193.571 165.399 193.745 166.076 194.097C166.691 194.395 167.207 194.862 167.563 195.441C167.913 196.014 168.096 196.672 168.092 197.342C168.09 198.092 167.885 198.827 167.497 199.472C167.101 200.177 166.606 200.822 166.026 201.389L164.109 203.175L162.555 204.715V204.797H168.224V206.681H159.795V204.813Z" fill="white"></path><path d="M169.728 204.813C170.142 204.42 170.935 203.617 172.125 202.437C173.315 201.258 174.108 200.438 174.505 200.012C174.923 199.598 175.289 199.136 175.596 198.636C175.804 198.248 175.907 197.813 175.894 197.374C175.9 197.134 175.854 196.894 175.756 196.673C175.659 196.452 175.514 196.255 175.332 196.096C175.121 195.909 174.876 195.765 174.609 195.673C174.342 195.58 174.06 195.54 173.778 195.556C173.516 195.542 173.254 195.58 173.008 195.667C172.761 195.754 172.534 195.889 172.34 196.064C171.979 196.381 171.721 196.797 171.596 197.26L169.695 196.49C169.846 196.002 170.087 195.546 170.406 195.146C170.793 194.688 171.271 194.314 171.811 194.048C172.434 193.73 173.127 193.573 173.827 193.589C174.592 193.573 175.348 193.748 176.026 194.097C176.637 194.401 177.15 194.869 177.504 195.449C177.858 196.029 178.039 196.697 178.026 197.374C178.022 198.122 177.822 198.856 177.447 199.504C177.046 200.206 176.551 200.851 175.976 201.421L174.059 203.175L172.406 204.715V204.797H178.059V206.681H169.596L169.728 204.813Z" fill="white"></path></g><defs><clipPath id="clip0_586_9719"><rect width="236" height="224" fill="white"></rect></clipPath></defs></svg>