<svg xmlns="http://www.w3.org/2000/svg" width="66" height="66" viewBox="0 0 66 66" fill="none"><g clip-path="url(#clip0_586_9620)"><path fill-rule="evenodd" clip-rule="evenodd" d="M49.0278 15.5918H43.9023C42.9029 15.5991 42.1362 16.3295 42.129 17.3233C42.1217 19.062 42.1217 20.7935 42.129 22.5323C42.1363 23.5189 42.9031 24.2583 43.8896 24.2583H49.0132C50.0415 24.2583 50.7937 23.5116 50.7937 22.4832C50.801 20.7789 50.801 19.0693 50.7937 17.3668C50.7937 16.3441 50.0416 15.5992 49.0278 15.5918Z" fill="black"></path><path fill-rule="evenodd" clip-rule="evenodd" d="M33.4694 41.5896C38.2606 41.5823 42.1288 37.7068 42.1288 32.9158C42.1215 28.1246 38.2462 24.2583 33.455 24.2583C28.6803 24.2583 24.8048 28.1391 24.7975 32.9085C24.7902 37.7068 28.6728 41.5896 33.4694 41.5896Z" fill="black"></path><path fill-rule="evenodd" clip-rule="evenodd" d="M46.4367 37.8126C45.401 40.5452 43.6695 42.7383 41.2621 44.386C36.9199 47.3513 31.2421 47.6002 26.6781 45.0238C24.3705 43.7174 22.561 41.9079 21.2983 39.573C19.9235 37.0368 19.3894 34.3852 19.6651 31.635C19.7764 30.5249 18.9638 29.4748 17.8481 29.4748C16.8998 29.4748 16.131 30.2436 16.131 31.192V48.4304C16.131 49.5168 16.8704 50.2545 17.9552 50.2545C18.651 50.2618 19.3396 50.2545 20.0356 50.2545H48.913C50.0849 50.2545 50.7935 49.5387 50.7935 48.3667V31.1823C50.7935 30.2353 50.0258 29.4675 49.0788 29.4675C47.9613 29.4675 47.1488 30.5223 47.26 31.6343C47.4692 33.7249 47.2019 35.7844 46.4367 37.8126Z" fill="black"></path><path fill-rule="evenodd" clip-rule="evenodd" d="M10.5032 0.376953C5.20656 0.376953 0.91275 4.67076 0.91275 9.96744V55.8741C0.91275 61.1708 5.20656 65.4646 10.5032 65.4646H56.4099C61.7066 65.4646 66.0004 61.1708 66.0004 55.8741V9.96744C66.0004 4.67076 61.7066 0.376953 56.4099 0.376953H10.5032ZM55.9826 15.5286V50.3256C55.9826 52.8875 54.0022 55.1168 51.455 55.4148C51.2551 55.4365 51.0571 55.4511 50.859 55.4511H16.0603C13.542 55.4511 11.3272 53.5125 10.993 51.0214C10.9513 50.7308 10.9294 50.4328 10.9294 50.1421V15.6776C10.9294 13.0795 12.6682 10.9645 15.2226 10.4758C15.5279 10.4178 15.8477 10.3977 16.1601 10.3977C27.6992 10.3904 39.2328 10.3904 50.7663 10.3904C53.47 10.3904 55.6919 12.3981 55.968 15.0818C55.9899 15.2307 55.9826 15.3796 55.9826 15.5286Z" fill="black"></path></g><defs><clipPath id="clip0_586_9620"><rect width="65.0876" height="65.0876" fill="white" transform="translate(0.912109 0.376953)"></rect></clipPath></defs></svg>