<svg xmlns="http://www.w3.org/2000/svg" width="65" height="66" viewBox="0 0 65 66" fill="none"><rect x="0.000244141" y="0.376953" width="64.576" height="65.2153" rx="9.59049" fill="black"></rect><path d="M20.9457 23.4478H11.7042C11.2941 23.4478 10.9617 23.7802 10.9617 24.1902V53.8791C10.9617 54.2893 11.2941 54.6216 11.7042 54.6216H20.9457C21.3558 54.6216 21.6882 54.2893 21.6882 53.8791V24.1902C21.6882 23.7802 21.3558 23.4478 20.9457 23.4478Z" fill="white"></path><path d="M16.3283 8.68872C12.9657 8.68872 10.2301 11.4214 10.2301 14.7803C10.2301 18.1406 12.9657 20.8743 16.3283 20.8743C19.6882 20.8743 22.4216 18.1405 22.4216 14.7803C22.4218 11.4214 19.6882 8.68872 16.3283 8.68872Z" fill="white"></path><path d="M44.452 22.7097C40.7403 22.7097 37.9965 24.3053 36.3323 26.1183V24.1901C36.3323 23.7801 36 23.4476 35.5898 23.4476H26.7395C26.3293 23.4476 25.997 23.7801 25.997 24.1901V53.879C25.997 54.2891 26.3293 54.6215 26.7395 54.6215H35.9608C36.3709 54.6215 36.7033 54.2891 36.7033 53.879V39.1899C36.7033 34.24 38.0478 32.3116 41.4983 32.3116C45.2561 32.3116 45.5548 35.403 45.5548 39.4445V53.8791C45.5548 54.2893 45.8871 54.6216 46.2973 54.6216H55.522C55.9321 54.6216 56.2644 54.2893 56.2644 53.8791V37.5943C56.2644 30.234 54.861 22.7097 44.452 22.7097Z" fill="white"></path></svg>