<svg xmlns="http://www.w3.org/2000/svg" width="423" height="65" viewBox="0 0 423 65" fill="none"><path d="M1.62972 40.9845C3.79135 42.0917 7.10807 43.199 10.5446 43.199C14.2352 43.199 16.1859 41.6699 16.1859 39.3547C16.1859 37.1401 14.4988 35.8698 10.2235 34.3407C4.31857 32.2796 0.469831 29.0104 0.469831 23.8431C0.469831 17.7746 5.53598 13.1345 13.9141 13.1345C17.9258 13.1345 20.8734 13.9782 22.9871 14.9273L21.1945 21.4128C19.771 20.7273 17.2404 19.7255 13.7607 19.7255C10.281 19.7255 8.59388 21.3073 8.59388 23.1528C8.59388 25.4249 10.5973 26.422 15.189 28.162C21.4629 30.482 24.4154 33.7511 24.4154 38.7651C24.4154 44.7281 19.8286 49.79 10.0701 49.79C6.01048 49.79 2.00357 48.7355 0.00012207 47.6282L1.63452 40.9845H1.62972Z" fill="black"></path><path d="M33.4837 38.9279C33.7473 42.2497 37.0161 43.8316 40.7594 43.8316C43.5058 43.8316 45.7153 43.4625 47.8817 42.777L48.9314 48.208C46.2953 49.2626 43.0792 49.7946 39.5995 49.7946C30.8476 49.7946 25.8342 44.7327 25.8342 36.6606C25.8342 30.1223 29.8986 22.8938 38.8614 22.8938C47.1963 22.8938 50.3597 29.3793 50.3597 35.7642C50.3597 37.1399 50.2015 38.3479 50.0961 38.9327H33.4837V38.9279ZM42.921 33.4442C42.921 31.4932 42.0775 28.2241 38.3869 28.2241C35.0127 28.2241 33.6371 31.2823 33.431 33.4442H42.921Z" fill="black"></path><path d="M67.1829 49.2626L66.7084 46.6741H66.5502C64.8631 48.7353 62.227 49.8426 59.1691 49.8426C53.9495 49.8426 50.8389 46.0462 50.8389 41.9286C50.8389 35.2321 56.8493 32.0157 65.9751 32.0685V31.6994C65.9751 30.3284 65.2369 28.3775 61.2828 28.3775C58.6466 28.3775 55.8524 29.2739 54.1604 30.3284L52.6842 25.1611C54.4768 24.1593 58.0092 22.8938 62.7063 22.8938C71.3048 22.8938 74.0416 27.9557 74.0416 34.0194V42.9879C74.0416 45.4709 74.147 47.8437 74.4106 49.2673H67.1877L67.1829 49.2626ZM66.2339 37.0776C62.0161 37.0249 58.7473 38.0267 58.7473 41.1377C58.7473 43.194 60.1181 44.2007 61.9106 44.2007C63.9141 44.2007 65.5485 42.8825 66.0709 41.2479C66.1812 40.8261 66.2339 40.3515 66.2339 39.877V37.0824V37.0776Z" fill="black"></path><path d="M77.7274 31.963C77.7274 28.1618 77.6219 25.6836 77.5165 23.469H84.4231L84.6867 28.2193H84.8976C86.2157 24.4756 89.379 22.8938 91.857 22.8938C92.5999 22.8938 92.9641 22.8938 93.5441 22.9993V30.5441C92.9641 30.4387 92.2788 30.3332 91.3825 30.3332C88.43 30.3332 86.4266 31.9151 85.8993 34.3933C85.7939 34.9206 85.7412 35.5533 85.7412 36.186V49.2626H77.7226V31.963H77.7274Z" fill="black"></path><path d="M114.063 48.6254C112.639 49.263 109.95 49.7902 106.893 49.7902C98.5624 49.7902 93.2326 44.7283 93.2326 36.6035C93.2326 29.0586 98.3994 22.8894 108 22.8894C110.109 22.8894 112.428 23.2585 114.115 23.8912L112.85 29.8495C111.901 29.4277 110.478 29.0586 108.369 29.0586C104.151 29.0586 101.409 32.0641 101.462 36.2823C101.462 41.0278 104.625 43.506 108.532 43.506C110.43 43.506 111.906 43.1897 113.119 42.7151L114.068 48.6206L114.063 48.6254Z" fill="black"></path><path d="M115.855 13.7146H123.869V26.5275H123.979C124.823 25.4202 125.877 24.5766 127.143 23.8911C128.303 23.2584 129.832 22.8893 131.313 22.8893C136.427 22.8893 140.333 26.422 140.333 34.1778V49.2628H132.314V35.0742C132.314 31.6996 131.15 29.3796 128.149 29.3796C126.04 29.3796 124.722 30.7505 124.142 32.1742C123.931 32.7014 123.874 33.3869 123.874 33.9621V49.258H115.86V13.7146H115.855Z" fill="black"></path><path d="M144.014 13.7146H151.98V29.4323H152.133C152.929 28.0614 153.768 26.7959 154.558 25.5304L162.63 13.7146H172.494L160.732 28.8475L173.126 49.2628H163.742L155.033 33.9142L151.98 37.6579V49.258H144.014V13.7146Z" fill="black"></path><path d="M181.289 17.1946C181.289 19.4091 179.602 21.2019 176.965 21.2019C174.43 21.2019 172.748 19.4091 172.8 17.1946C172.743 14.8745 174.43 13.1345 177.018 13.1345C179.597 13.1345 181.231 14.8745 181.289 17.1946Z" fill="black"></path><path d="M181.025 23.4692H173.006V49.2628H181.025V23.4692Z" fill="black"></path><path d="M184.706 31.6998C184.706 28.4834 184.601 25.7415 184.495 23.4694H191.455L191.828 27.0022H191.982C193.036 25.3676 195.672 22.8894 199.943 22.8894C205.215 22.8894 209.174 26.3742 209.174 33.9623V49.2582H201.155V34.9641C201.155 31.6422 199.996 29.3749 197.096 29.3749C194.881 29.3749 193.559 30.904 193.031 32.3804C192.821 32.855 192.715 33.6459 192.715 34.3841V49.2582H184.696V31.6998H184.706Z" fill="black"></path><path d="M236.312 23.4694C236.206 25.104 236.101 27.2706 236.101 31.1198V45.5193C236.101 50.4709 235.099 54.5357 232.199 57.1194C229.352 59.5449 225.499 60.2831 221.703 60.2831C218.329 60.2831 214.743 59.5976 212.424 58.2794L214.01 52.2157C215.64 53.1696 218.487 54.1667 221.497 54.1667C225.293 54.1667 228.192 52.1103 228.192 47.3648V45.6727H228.087C226.558 47.8345 224.075 49.0472 221.128 49.0472C214.743 49.0472 210.214 43.8751 210.214 36.4453C210.214 28.1622 215.592 22.8894 221.923 22.8894C225.456 22.8894 227.67 24.4185 228.988 26.5276H229.094L229.362 23.4694H236.321H236.312ZM228.087 33.9623C228.087 33.4398 228.039 32.9077 227.934 32.4859C227.344 30.3768 225.82 28.9531 223.601 28.9531C220.701 28.9531 218.329 31.5895 218.329 36.2823C218.329 40.1314 220.231 43.1417 223.601 43.1417C225.662 43.1417 227.296 41.7708 227.823 39.8726C228.039 39.2926 228.087 38.4489 228.087 37.7587V33.9623Z" fill="black"></path><path d="M239.413 42.2501C240.894 43.1465 243.952 44.2011 246.324 44.2011C248.745 44.2011 249.751 43.3574 249.751 42.0344C249.751 40.721 248.965 40.0835 245.95 39.0817C240.63 37.2841 238.574 34.3889 238.622 31.3307C238.622 26.5276 242.734 22.8894 249.114 22.8894C252.124 22.8894 254.808 23.5749 256.394 24.3658L254.975 29.907C253.811 29.2743 251.596 28.4306 249.382 28.4306C247.431 28.4306 246.324 29.2215 246.324 30.5397C246.324 31.7525 247.326 32.3852 250.489 33.4925C255.397 35.1798 257.449 37.6628 257.506 41.4592C257.506 46.2575 253.71 49.795 246.324 49.795C242.95 49.795 239.945 49.052 237.989 47.9975L239.413 42.2549V42.2501Z" fill="black"></path><path d="M317.55 48.9998L303.794 13.2971H294.266L280.456 48.9998H289.127L291.375 42.9512H306.684L308.879 48.9998H317.55ZM304.596 36.2603H293.463L299.03 20.898L304.596 36.2603ZM327.991 48.9998V29.0876H333.237V23.1461H327.991V21.7544C327.991 19.3457 329.329 18.1146 331.203 18.1146C332.434 18.1146 333.344 18.4892 334.04 19.1851L336.609 15.1706C334.95 13.4042 332.327 12.7618 329.865 12.7618C324.673 12.7618 321.14 16.2411 321.14 21.7544V23.1461H316.858V29.0876H321.14V48.9998H327.991ZM343.95 48.9998V31.9246C345.074 30.2652 348.072 28.9806 350.32 28.9806C351.069 28.9806 351.712 29.0341 352.193 29.1412V22.5038C348.982 22.5038 345.77 24.3772 343.95 26.6789V23.1461H337.152V48.9998H343.95ZM359.813 20.3627C362.061 20.3627 363.881 18.5428 363.881 16.2946C363.881 14.0465 362.061 12.2801 359.813 12.2801C357.619 12.2801 355.745 14.0465 355.745 16.2946C355.745 18.5428 357.619 20.3627 359.813 20.3627ZM363.239 48.9998V23.1461H356.441V48.9998H363.239ZM382.023 49.6421C387.322 49.6421 390.534 47.3404 392.247 44.9317L387.804 40.8101C386.573 42.523 384.7 43.5935 382.344 43.5935C378.223 43.5935 375.332 40.5425 375.332 36.0462C375.332 31.5499 378.223 28.5524 382.344 28.5524C384.7 28.5524 386.573 29.5159 387.804 31.3358L392.247 27.1607C390.534 24.8055 387.322 22.5038 382.023 22.5038C374.048 22.5038 368.32 28.1241 368.32 36.0462C368.32 44.0217 374.048 49.6421 382.023 49.6421ZM419.012 48.9998V32.2993C419.012 24.859 413.605 22.5038 407.717 22.5038C403.649 22.5038 399.581 23.7884 396.423 26.5719L398.993 31.1217C401.187 29.0876 403.756 28.0706 406.54 28.0706C409.966 28.0706 412.214 29.7835 412.214 32.4063V35.8856C410.501 33.8516 407.45 32.7275 404.024 32.7275C399.903 32.7275 395.032 35.0292 395.032 41.0777C395.032 46.8587 399.903 49.6421 404.024 49.6421C407.396 49.6421 410.447 48.411 412.214 46.3234V48.9998H419.012ZM406.754 45.0387C404.078 45.0387 401.883 43.647 401.883 41.2383C401.883 38.7225 404.078 37.3308 406.754 37.3308C408.949 37.3308 411.09 38.0802 412.214 39.579V42.7906C411.09 44.2894 408.949 45.0387 406.754 45.0387Z" fill="black"></path><path d="M270.798 20.486V13.2465H269.383L267.277 18.5116L265.171 13.2465H263.756V20.486H264.678V14.497L267.146 20.486H267.409L269.877 14.497V20.486H270.798ZM262.572 14.1021V13.2465H257.57V14.1021H259.61V20.486H260.531V14.1021H262.572Z" fill="black"></path></svg>