<svg xmlns="http://www.w3.org/2000/svg" width="154" height="34" viewBox="0 0 154 34" fill="none"><path d="M25.7991 6.16318C27.4522 6.16318 28.7918 4.82706 28.7918 3.17898C28.7918 1.53089 27.4522 0.194824 25.7991 0.194824C24.1459 0.194824 22.8064 1.53089 22.8064 3.17898C22.8064 4.82706 24.1459 6.16318 25.7991 6.16318Z" fill="black"></path><path d="M28.4869 7.65601H23.1119V26.0368H28.4869V7.65601Z" fill="black"></path><path d="M112.247 6.16318C113.9 6.16318 115.24 4.82706 115.24 3.17898C115.24 1.53089 113.9 0.194824 112.247 0.194824C110.594 0.194824 109.254 1.53089 109.254 3.17898C109.254 4.82706 110.594 6.16318 112.247 6.16318Z" fill="black"></path><path d="M114.935 7.65601H109.56V26.0368H114.935V7.65601Z" fill="black"></path><path d="M154 16.2408C154 10.9948 149.804 7.25269 144.759 7.25269C139.096 7.25269 134.976 11.1787 134.976 16.8283C134.976 22.4059 138.842 26.4049 144.759 26.4049C149.804 26.4049 153.152 23.2867 153.78 19.838H148.591C147.998 21.3419 146.268 22.1863 144.649 22.1863C142.479 22.1499 140.859 20.8655 140.385 18.0763H153.958L154 16.2408ZM140.495 14.7369C141.08 12.0223 143.106 11.3619 144.759 11.3619C146.455 11.3619 148.439 12.2063 148.701 14.7369H140.495Z" fill="black"></path><path d="M131.009 7.65601H136.519L129.016 26.0368H123.353L115.85 7.65601H121.624L126.295 19.8352L131.009 7.65601Z" fill="black"></path><path d="M101.463 10.5939C102.709 8.64905 104.702 7.40112 106.982 7.40112C107.389 7.40112 107.898 7.43759 108.228 7.54865V12.5743C107.788 12.5022 107.313 12.4658 106.872 12.4658C103.413 12.4658 101.607 14.9972 101.607 18.6291V26.0404H96.2748V12.5022C96.2748 12.2089 96.1645 12.1343 95.8339 12.1343H93.9943V7.65886H98.6316C100.505 7.65886 101.463 8.53971 101.463 10.1912V10.5939Z" fill="black"></path><path d="M93.0368 21.561C92.7486 21.561 92.6722 21.4881 92.6722 21.1931V2.8505C92.6722 1.01675 91.7143 0.172363 89.7644 0.172363H85.0931V4.61131H86.8225C87.1532 4.61131 87.2634 4.72071 87.2634 5.01574V9.34535C86.5682 8.42805 84.6184 7.25301 81.9987 7.25301C76.8188 7.25301 73.0291 11.1791 73.0291 16.8287C73.0291 22.5885 76.6662 26.4052 81.8546 26.4052C84.7625 26.4052 86.8226 24.9369 87.5941 23.7271C87.6704 24.535 88.2214 26.039 90.2052 26.039H94.9528V21.5644H93.0368V21.561ZM82.9567 22.001C80.3795 22.001 78.5059 20.0197 78.5059 16.827C78.5059 13.7817 80.4218 11.7284 82.999 11.7284C85.8985 11.7284 87.3736 14.2972 87.3736 16.7905C87.3736 20.6802 85.0168 22.001 82.9567 22.001Z" fill="black"></path><path d="M71.8507 16.2408C71.8507 10.9948 67.6542 7.25269 62.6184 7.25269C56.9467 7.25269 52.8265 11.1787 52.8265 16.8283C52.8265 22.4059 56.6924 26.4049 62.6184 26.4049C67.6542 26.4049 71.0029 23.2867 71.6303 19.838H66.4419C65.8484 21.3419 64.1189 22.1863 62.5082 22.1863C60.3294 22.1499 58.7186 20.8655 58.2353 18.0763H71.8083L71.8507 16.2408ZM58.3455 14.7369C58.939 12.0223 60.9567 11.3619 62.6184 11.3619C64.3055 11.3619 66.2978 12.2063 66.5521 14.7369H58.3455Z" fill="black"></path><path d="M42.9667 7.25269C39.9486 7.25269 37.8206 8.8304 37.0067 10.1869C36.8626 9.41622 36.3455 7.65453 34.2854 7.65453H29.8007V12.1317H31.6403C31.971 12.1317 32.0472 12.2046 32.0472 12.4996V33.5576H37.4138V25.413L37.3798 24.093C38.1513 25.3774 40.2114 26.4049 42.7124 26.4049C47.9771 26.4049 51.6564 22.5153 51.6564 16.8283C51.6479 11.1041 48.1551 7.25269 42.9667 7.25269ZM41.6102 22.0007C38.7023 22.0007 37.3035 19.3954 37.3035 16.9013C37.3035 13.0871 39.6179 11.7281 41.678 11.7281C44.179 11.7281 46.1713 13.8196 46.1713 16.8631C46.1713 20.4603 43.7382 22.0007 41.6102 22.0007Z" fill="black"></path><path d="M21.849 16.8275C21.849 22.5136 18.1781 26.4032 12.9134 26.4032C10.4125 26.4032 8.35148 25.3757 7.57916 24.0913L7.61564 25.4121V33.5559H2.24581V12.4979C2.24581 12.2046 2.17288 12.13 1.84055 12.13H0V7.65453H4.48903C6.54914 7.65453 7.06459 9.41622 7.21125 10.1869C8.02088 8.8304 10.153 7.25269 13.1703 7.25269C18.3562 7.25099 21.849 11.1025 21.849 16.8275ZM16.3715 16.8631C16.3715 13.8179 14.3852 11.7281 11.8825 11.7281C9.82327 11.7281 7.50459 13.0854 7.50459 16.9013C7.50459 19.3954 8.90174 22.0007 11.8096 22.0007C13.9435 21.999 16.3715 20.4586 16.3715 16.8631Z" fill="black"></path></svg>