<svg xmlns="http://www.w3.org/2000/svg" width="133" height="127" viewBox="0 0 133 127" fill="none"><g clip-path="url(#clip0_586_9626)"><rect x="1.15622" y="1.41256" width="130.688" height="123.808" rx="12.4463" fill="white" stroke="black" stroke-width="2.31243"></rect><path d="M0 100.219H133V112.775C133 120.287 126.91 126.377 119.397 126.377H13.6026C6.09007 126.377 0 120.287 0 112.775V100.219Z" fill="black"></path><path d="M86.3942 40.5537C86.3599 39.1836 86.2041 37.8191 85.9284 36.4761H67.1874V44.1793H77.7036C77.5227 45.3873 77.0927 46.5455 76.4405 47.5818C75.7883 48.6182 74.9278 49.5106 73.9125 50.2035V55.2129H80.4328C84.2238 51.7441 86.4035 46.6148 86.4035 40.5537H86.3942Z" fill="#0081C6"></path><path d="M67.1311 60.0283C72.0198 60.1611 76.7749 58.4384 80.4231 55.2127L73.9029 50.2033C72.3507 51.187 70.5922 51.8069 68.7615 52.0157C66.9308 52.2244 65.0761 52.0166 63.3387 51.4081C61.6014 50.7995 60.0272 49.8062 58.7361 48.5039C57.445 47.2016 56.471 45.6246 55.8884 43.8931H49.2098V49.0501C50.8735 52.3474 53.4312 55.1208 56.5964 57.0597C59.7617 58.9987 63.4094 60.0266 67.1311 60.0283Z" fill="#00AE57"></path><path d="M55.8882 43.8929C55.056 41.4323 55.056 38.7702 55.8882 36.3096V31.1526H49.2096C47.8006 33.9292 47.0668 36.9937 47.0668 40.1012C47.0668 43.2088 47.8006 46.2733 49.2096 49.0499L55.8882 43.8929Z" fill="#FBAB18"></path><path d="M67.1311 28.0994C69.9825 28.0565 72.7364 29.1269 74.7971 31.0792L80.5535 25.3687C76.9275 21.981 72.1156 20.119 67.1311 20.1748C63.4094 20.1765 59.7617 21.2044 56.5964 23.1434C53.4312 25.0823 50.8735 27.8558 49.2098 31.153L55.8884 36.3101C56.658 33.9495 58.156 31.8875 60.1712 30.4146C62.1865 28.9416 64.6175 28.1319 67.1218 28.0994H67.1311Z" fill="#F04931"></path><path d="M23.0494 80.7386C22.2843 80.2944 21.6499 79.6598 21.209 78.8978C20.7682 78.1357 20.5363 77.2727 20.5363 76.3944C20.5363 75.5161 20.7682 74.6531 21.209 73.8911C21.6499 73.129 22.2843 72.4944 23.0494 72.0503C23.8132 71.6178 24.6786 71.3922 25.5584 71.3963C26.2439 71.3933 26.9233 71.5234 27.5582 71.7793C28.1508 72.0006 28.6813 72.3594 29.1051 72.8257L28.2845 73.6478C27.9681 73.268 27.5635 72.9699 27.1054 72.7789C26.5538 72.5538 25.9583 72.4537 25.3626 72.486C24.7668 72.5184 24.1859 72.6823 23.6625 72.9658C23.0746 73.2931 22.586 73.7706 22.2476 74.3484C21.8809 74.9681 21.6948 75.6763 21.7099 76.3944C21.696 77.1153 21.882 77.8262 22.2476 78.4497C22.5899 79.0253 23.0817 79.4996 23.6719 79.823C24.2481 80.143 24.8979 80.3103 25.5584 80.3088C26.1176 80.325 26.6739 80.2231 27.1903 80.0099C27.6128 79.8196 27.994 79.55 28.3128 79.2158C28.5601 78.9432 28.7523 78.626 28.8787 78.2815C29.0281 77.9079 29.1203 77.5143 29.1523 77.1138H25.5867V76.0861H30.2276C30.2712 76.3172 30.2933 76.5517 30.2936 76.7868C30.2948 77.3682 30.1992 77.9458 30.0106 78.4964C29.8171 79.052 29.4939 79.5545 29.0674 79.9632C28.6144 80.4395 28.0632 80.8138 27.4512 81.0604C26.8392 81.3071 26.1808 81.4203 25.5207 81.3925C24.6531 81.3944 23.8004 81.1688 23.0494 80.7386Z" fill="black"></path><path d="M33.1328 80.9161C32.5984 80.599 32.1613 80.1436 31.8689 79.5988C31.5713 79.0351 31.4159 78.4085 31.4159 77.7724C31.4159 77.1363 31.5713 76.5097 31.8689 75.946C32.1701 75.3959 32.6157 74.9366 33.1586 74.6166C33.7015 74.2965 34.3215 74.1276 34.9533 74.1276C35.5851 74.1276 36.2052 74.2965 36.7481 74.6166C37.291 74.9366 37.7366 75.3959 38.0378 75.946C38.3353 76.5097 38.4907 77.1363 38.4907 77.7724C38.4907 78.4085 38.3353 79.0351 38.0378 79.5988C37.7453 80.1436 37.3083 80.599 36.7738 80.9161C36.2188 81.2281 35.5915 81.3921 34.9533 81.3921C34.3151 81.3921 33.6879 81.2281 33.1328 80.9161ZM36.1324 80.0472C36.5103 79.827 36.8152 79.5023 37.0096 79.113C37.2347 78.6795 37.3521 78.1991 37.3521 77.7117C37.3521 77.2242 37.2347 76.7438 37.0096 76.3103C36.8083 75.9439 36.5112 75.6378 36.1495 75.4241C35.7877 75.2104 35.3746 75.097 34.9533 75.0958C34.5353 75.0924 34.1243 75.2022 33.7648 75.4135C33.3864 75.6361 33.0791 75.9599 32.8782 76.3477C32.6531 76.7812 32.5357 77.2616 32.5357 77.749C32.5357 78.2365 32.6531 78.7169 32.8782 79.1504C33.0791 79.5382 33.3864 79.862 33.7648 80.0846C34.1243 80.2958 34.5353 80.4057 34.9533 80.4022C35.3719 80.3942 35.7801 80.2713 36.1324 80.0472Z" fill="black"></path><path d="M41.16 80.9161C40.6255 80.599 40.1885 80.1436 39.896 79.5988C39.5985 79.0351 39.4431 78.4085 39.4431 77.7724C39.4431 77.1363 39.5985 76.5097 39.896 75.946C40.1972 75.3959 40.6428 74.9366 41.1857 74.6166C41.7286 74.2965 42.3487 74.1276 42.9805 74.1276C43.6123 74.1276 44.2324 74.2965 44.7753 74.6166C45.3182 74.9366 45.7638 75.3959 46.065 75.946C46.3564 76.5115 46.5084 77.1374 46.5084 77.7724C46.5084 78.4074 46.3564 79.0333 46.065 79.5988C45.7803 80.14 45.3534 80.5951 44.8293 80.9161C44.2743 81.2281 43.647 81.3921 43.0088 81.3921C42.3706 81.3921 41.7433 81.2281 41.1883 80.9161H41.16ZM44.1596 80.0472C44.5352 79.8241 44.8393 79.5002 45.0368 79.113C45.2619 78.6795 45.3793 78.1991 45.3793 77.7117C45.3793 77.2242 45.2619 76.7438 45.0368 76.3103C44.8393 75.9232 44.5352 75.5993 44.1596 75.3761C43.7801 75.2005 43.3589 75.1326 42.9428 75.1799C42.5248 75.1765 42.1138 75.2863 41.7543 75.4976C41.3759 75.7202 41.0685 76.044 40.8676 76.4318C40.6425 76.8653 40.5251 77.3457 40.5251 77.8331C40.5251 78.3206 40.6425 78.801 40.8676 79.2345C41.0685 79.6223 41.3759 79.9461 41.7543 80.1687C42.1138 80.3799 42.5248 80.4898 42.9428 80.4863C43.3829 80.4604 43.8058 80.3078 44.1596 80.0472Z" fill="black"></path><path d="M48.857 83.7187C48.3633 83.3931 47.9893 82.9179 47.7911 82.3641L48.8287 81.925C48.9832 82.3052 49.2494 82.6307 49.5928 82.8593C49.963 83.1142 50.4059 83.2452 50.8567 83.233C51.1579 83.2518 51.4598 83.2093 51.7437 83.1081C52.0276 83.0069 52.2875 82.849 52.5075 82.6444C52.7124 82.4163 52.8696 82.1503 52.97 81.8616C53.0704 81.573 53.112 81.2675 53.0923 80.9628V80.1967H53.0357C52.8025 80.5575 52.477 80.8508 52.0924 81.0469C51.6183 81.2824 51.0912 81.394 50.5613 81.3711C50.0314 81.3482 49.5162 81.1916 49.0645 80.9161C48.5714 80.6094 48.1707 80.177 47.9043 79.6642C47.6059 79.0865 47.4568 78.4445 47.4704 77.7958C47.4596 77.1473 47.6085 76.5059 47.9043 75.9273C48.1651 75.4008 48.5663 74.9549 49.0645 74.6381C49.5162 74.3626 50.0314 74.2059 50.5613 74.183C51.0912 74.1602 51.6183 74.2718 52.0924 74.5073C52.4795 74.704 52.8055 75.001 53.0357 75.3668H53.0923V74.4325H54.1865V80.9721C54.2144 81.414 54.1519 81.8569 54.0028 82.2743C53.8536 82.6917 53.6209 83.075 53.3187 83.4011C52.6587 83.9903 51.7915 84.2989 50.9039 84.2606C50.1802 84.3062 49.4613 84.1159 48.857 83.7187ZM51.9792 80.0566C52.3314 79.8252 52.6122 79.5019 52.7904 79.1224C52.9921 78.6822 53.0964 78.2044 53.0964 77.721C53.0964 77.2376 52.9921 76.7598 52.7904 76.3197C52.6193 75.9356 52.337 75.6105 51.9792 75.3854C51.642 75.1796 51.2528 75.0727 50.8567 75.0771C50.4563 75.0716 50.0628 75.182 49.7248 75.3948C49.3756 75.6121 49.0921 75.9187 48.9042 76.2823C48.7013 76.7222 48.5963 77.2001 48.5963 77.6836C48.5963 78.1672 48.7013 78.6451 48.9042 79.085C49.0806 79.4685 49.3657 79.7931 49.7248 80.0192C50.0656 80.2249 50.4577 80.3317 50.8567 80.3275C51.2491 80.3432 51.6381 80.2494 51.9792 80.0566Z" fill="black"></path><path d="M55.8749 71.6112H57.0162V81.1777H55.8749V71.6112Z" fill="black"></path><path d="M60.0158 80.9254C59.4955 80.6275 59.0705 80.1904 58.7896 79.6642C58.4908 79.0866 58.3417 78.4446 58.3557 77.7958C58.3404 77.15 58.4794 76.5098 58.7613 75.9273C59.0298 75.4085 59.4296 74.9675 59.9215 74.6474C60.4445 74.3151 61.0547 74.1429 61.676 74.1523C62.2917 74.1358 62.8997 74.2912 63.4304 74.6007C63.921 74.8966 64.3167 75.3242 64.5718 75.8339C64.844 76.3961 64.9796 77.0135 64.9679 77.6369C64.984 77.7516 64.984 77.8679 64.9679 77.9826H59.497C59.5124 78.4426 59.642 78.8918 59.8743 79.2905C60.0811 79.6309 60.3779 79.9087 60.7327 80.094C61.0668 80.2698 61.4391 80.3628 61.8175 80.3649C62.2403 80.3722 62.6564 80.2601 63.0172 80.0417C63.3781 79.8233 63.6686 79.5077 63.8549 79.1317L64.7982 79.5988C64.5209 80.1362 64.1041 80.5909 63.5908 80.9161C63.0418 81.2257 62.4209 81.3885 61.7892 81.3885C61.1574 81.3885 60.5365 81.2257 59.9875 80.9161L60.0158 80.9254ZM63.7889 77.0484C63.7681 76.7523 63.6879 76.4633 63.5531 76.1982C63.3963 75.8991 63.1577 75.6498 62.8645 75.4789C62.5148 75.2709 62.112 75.1671 61.7043 75.1799C61.1982 75.1682 60.7075 75.3526 60.3365 75.6937C59.9501 76.0548 59.692 76.53 59.6008 77.0484H63.7889Z" fill="black"></path><path d="M69.1277 71.6112H72.382C72.9047 71.6075 73.4201 71.7327 73.8818 71.9755C74.3427 72.2065 74.7333 72.5548 75.0137 72.9845C75.2892 73.4268 75.435 73.9362 75.435 74.4559C75.435 74.9756 75.2892 75.485 75.0137 75.9273C74.7437 76.3521 74.3666 76.6999 73.9195 76.9363C73.4578 77.1791 72.9424 77.3043 72.4197 77.3006H70.2974V81.1963H69.1655L69.1277 71.6112ZM72.4103 76.1982C72.7424 76.2033 73.0692 76.1159 73.3536 75.946C73.6169 75.7817 73.8368 75.5575 73.995 75.292C74.143 75.0344 74.2208 74.743 74.2208 74.4465C74.2208 74.1501 74.143 73.8587 73.995 73.6011C73.8368 73.3356 73.6169 73.1114 73.3536 72.9471C73.0692 72.7772 72.7424 72.6898 72.4103 72.6949H70.2974V76.1982H72.4103Z" fill="black"></path><path d="M77.6926 81.1029C77.3059 80.9272 76.9785 80.6451 76.7493 80.2901C76.5316 79.9393 76.4203 79.534 76.4286 79.1224C76.4144 78.7954 76.4819 78.47 76.6251 78.1751C76.7682 77.8801 76.9826 77.6247 77.2492 77.4314C77.8684 77.0182 78.6074 76.818 79.3527 76.8615C79.7402 76.8597 80.1265 76.9036 80.5035 76.9923C80.7898 77.0579 81.0659 77.1616 81.3241 77.3006V76.8615C81.3335 76.6306 81.29 76.4005 81.1969 76.1886C81.1038 75.9766 80.9635 75.7883 80.7865 75.6377C80.404 75.3217 79.9163 75.1585 79.4187 75.1799C79.0488 75.1738 78.6829 75.2571 78.3528 75.4228C78.04 75.581 77.7761 75.8198 77.5888 76.1141L76.721 75.4695C77.0032 75.0671 77.387 74.745 77.8341 74.5353C78.3246 74.2995 78.8641 74.1811 79.4093 74.1896C80.212 74.1447 81.0016 74.4054 81.6165 74.9183C81.8803 75.1684 82.088 75.4707 82.2261 75.8055C82.3643 76.1402 82.4297 76.5 82.4183 76.8615V81.1777H81.3241V80.2434H81.2675C81.0478 80.5928 80.7429 80.882 80.3809 81.0842C79.975 81.3193 79.5115 81.4389 79.0414 81.4299C78.5721 81.4276 78.1099 81.3156 77.6926 81.1029ZM80.2299 80.0939C80.5587 79.9022 80.8343 79.6326 81.0317 79.3092C81.2239 78.9798 81.3248 78.6059 81.3241 78.2255C81.0795 78.0707 80.8122 77.9541 80.5318 77.8798C80.2043 77.8045 79.8676 77.7762 79.5319 77.7958C79.0268 77.757 78.5236 77.8923 78.1076 78.1788C77.9548 78.2972 77.8319 78.4491 77.7484 78.6226C77.6649 78.796 77.6232 78.9863 77.6265 79.1784C77.6184 79.3571 77.6535 79.5352 77.729 79.6977C77.8044 79.8602 77.9181 80.0025 78.0604 80.1126C78.3739 80.3495 78.7605 80.4717 79.1546 80.4583C79.5405 80.4393 79.9132 80.313 80.2299 80.0939Z" fill="black"></path><path d="M83.8143 74.4699H84.9085V75.5536H84.9651C85.1235 75.1589 85.4129 74.8293 85.7858 74.6194C86.3229 74.3158 86.952 74.2131 87.5591 74.3298V75.4882C87.3543 75.4468 87.1455 75.428 86.9365 75.4322C86.6713 75.4241 86.4074 75.4715 86.162 75.5713C85.9166 75.6711 85.6952 75.8211 85.5122 76.0114C85.3262 76.2126 85.1822 76.4483 85.0883 76.7048C84.9944 76.9613 84.9526 77.2336 84.9651 77.5061V81.2431H83.8143V74.4699ZM90.7945 81.2524C90.5715 81.1763 90.3685 81.0518 90.2002 80.888C90.0241 80.7192 89.8859 80.5154 89.7946 80.2901C89.6966 80.0241 89.6518 79.7417 89.6626 79.4587V75.3948H88.4552V74.3671H89.6626V72.4426H90.8039V74.3671H92.4829V75.3948H90.8039V79.1877C90.7825 79.4868 90.8586 79.7848 91.0209 80.0379C91.1152 80.139 91.2309 80.2183 91.3597 80.2699C91.4885 80.3216 91.6273 80.3445 91.766 80.3369C92.0338 80.3334 92.2952 80.2557 92.5207 80.1126V81.215C92.3886 81.2783 92.2492 81.3254 92.1056 81.3552C91.9299 81.3719 91.7531 81.3719 91.5774 81.3552C91.3122 81.3693 91.0468 81.3344 90.7945 81.2524Z" fill="black"></path><path d="M93.7846 74.3671H94.8788V75.3668H94.9354C95.1613 74.9976 95.4884 74.6995 95.8787 74.5073C96.2788 74.274 96.7349 74.1514 97.1992 74.1523C97.5466 74.1307 97.8946 74.1829 98.22 74.3053C98.5453 74.4278 98.8405 74.6177 99.0858 74.8623C99.5446 75.408 99.7773 76.1058 99.7366 76.8148V81.1777H98.5953V76.983C98.6189 76.7355 98.5909 76.486 98.513 76.2497C98.4351 76.0135 98.309 75.7956 98.1425 75.6097C97.7973 75.3092 97.3468 75.1549 96.888 75.1799C96.5331 75.1758 96.1862 75.2838 95.8975 75.4882C95.6057 75.6943 95.372 75.9709 95.2184 76.2916C95.0539 76.6195 94.9699 76.9812 94.9731 77.3473V81.1777H93.7846V74.3671Z" fill="black"></path><path d="M102.651 80.9254C102.131 80.6275 101.706 80.1904 101.425 79.6642C101.126 79.0866 100.977 78.4446 100.991 77.7958C100.985 77.1477 101.133 76.5074 101.425 75.9273C101.688 75.3917 102.092 74.9365 102.595 74.61C103.116 74.2752 103.728 74.1027 104.349 74.1149C104.965 74.1009 105.572 74.2561 106.104 74.5633C106.594 74.8592 106.99 75.2868 107.245 75.7965C107.517 76.3587 107.653 76.9762 107.641 77.5996C107.653 77.7145 107.653 77.8303 107.641 77.9452H102.199C102.214 78.4053 102.344 78.8545 102.576 79.2531C102.78 79.5954 103.078 79.8738 103.434 80.0566C103.768 80.2325 104.141 80.3254 104.519 80.3275C104.942 80.3348 105.358 80.2228 105.719 80.0044C106.08 79.786 106.37 79.4703 106.556 79.0943L107.5 79.5614C107.222 80.0989 106.806 80.5535 106.292 80.8787C105.743 81.1883 105.122 81.3511 104.491 81.3511C103.904 81.3511 103.253 81.2571 102.651 80.9254ZM106.424 77.0484C106.405 76.7509 106.321 76.4611 106.179 76.1982C106.029 75.8977 105.793 75.6475 105.5 75.4789C105.15 75.2709 104.747 75.1671 104.34 75.1799C103.831 75.1697 103.338 75.3537 102.963 75.6937C102.582 76.0595 102.325 76.5326 102.227 77.0484H106.424Z" fill="black"></path><path d="M108.971 74.3671H110.065V75.4602H110.122C110.268 75.0725 110.54 74.7439 110.895 74.526C111.254 74.2836 111.678 74.1534 112.112 74.1523C112.39 74.1422 112.667 74.1932 112.923 74.3017V75.5162C112.629 75.3761 112.307 75.3027 111.98 75.3014C111.644 75.2932 111.313 75.3914 111.037 75.5816C110.752 75.7735 110.522 76.0339 110.367 76.3384C110.2 76.6552 110.116 77.0085 110.122 77.366V81.1777H108.971V74.3671Z" fill="black"></path><path d="M23.0494 80.7386C22.2843 80.2944 21.6499 79.6598 21.209 78.8978C20.7682 78.1357 20.5363 77.2727 20.5363 76.3944C20.5363 75.5161 20.7682 74.6531 21.209 73.8911C21.6499 73.129 22.2843 72.4944 23.0494 72.0503C23.8132 71.6178 24.6786 71.3922 25.5584 71.3963C26.2439 71.3933 26.9233 71.5234 27.5582 71.7793C28.1508 72.0006 28.6813 72.3594 29.1051 72.8257L28.2845 73.6478C27.9681 73.268 27.5635 72.9699 27.1054 72.7789C26.5538 72.5538 25.9583 72.4537 25.3626 72.486C24.7668 72.5184 24.1859 72.6823 23.6625 72.9658C23.0746 73.2931 22.586 73.7706 22.2476 74.3484C21.8809 74.9681 21.6948 75.6763 21.7099 76.3944C21.696 77.1153 21.882 77.8262 22.2476 78.4497C22.5899 79.0253 23.0817 79.4996 23.6719 79.823C24.2481 80.143 24.8979 80.3103 25.5584 80.3088C26.1176 80.325 26.6739 80.2231 27.1903 80.0099C27.6128 79.8196 27.994 79.55 28.3128 79.2158C28.5601 78.9432 28.7523 78.626 28.8787 78.2815C29.0281 77.9079 29.1203 77.5143 29.1523 77.1138H25.5867V76.0861H30.2276C30.2712 76.3172 30.2933 76.5517 30.2936 76.7868C30.2948 77.3682 30.1992 77.9458 30.0106 78.4964C29.8171 79.052 29.4939 79.5545 29.0674 79.9632C28.6144 80.4395 28.0632 80.8138 27.4512 81.0604C26.8392 81.3071 26.1808 81.4203 25.5207 81.3925C24.6531 81.3944 23.8004 81.1688 23.0494 80.7386Z" stroke="black" stroke-width="0.2"></path><path d="M33.1328 80.9161C32.5984 80.599 32.1613 80.1436 31.8689 79.5988C31.5713 79.0351 31.4159 78.4085 31.4159 77.7724C31.4159 77.1363 31.5713 76.5097 31.8689 75.946C32.1701 75.3959 32.6157 74.9366 33.1586 74.6166C33.7015 74.2965 34.3215 74.1276 34.9533 74.1276C35.5851 74.1276 36.2052 74.2965 36.7481 74.6166C37.291 74.9366 37.7366 75.3959 38.0378 75.946C38.3353 76.5097 38.4907 77.1363 38.4907 77.7724C38.4907 78.4085 38.3353 79.0351 38.0378 79.5988C37.7453 80.1436 37.3083 80.599 36.7738 80.9161C36.2188 81.2281 35.5915 81.3921 34.9533 81.3921C34.3151 81.3921 33.6879 81.2281 33.1328 80.9161ZM36.1324 80.0472C36.5103 79.827 36.8152 79.5023 37.0096 79.113C37.2347 78.6795 37.3521 78.1991 37.3521 77.7117C37.3521 77.2242 37.2347 76.7438 37.0096 76.3103C36.8083 75.9439 36.5112 75.6378 36.1495 75.4241C35.7877 75.2104 35.3746 75.097 34.9533 75.0958C34.5353 75.0924 34.1243 75.2022 33.7648 75.4135C33.3864 75.6361 33.0791 75.9599 32.8782 76.3477C32.6531 76.7812 32.5357 77.2616 32.5357 77.749C32.5357 78.2365 32.6531 78.7169 32.8782 79.1504C33.0791 79.5382 33.3864 79.862 33.7648 80.0846C34.1243 80.2958 34.5353 80.4057 34.9533 80.4022C35.3719 80.3942 35.7801 80.2713 36.1324 80.0472Z" stroke="black" stroke-width="0.2"></path><path d="M41.16 80.9161C40.6255 80.599 40.1885 80.1436 39.896 79.5988C39.5985 79.0351 39.4431 78.4085 39.4431 77.7724C39.4431 77.1363 39.5985 76.5097 39.896 75.946C40.1972 75.3959 40.6428 74.9366 41.1857 74.6166C41.7286 74.2965 42.3487 74.1276 42.9805 74.1276C43.6123 74.1276 44.2324 74.2965 44.7753 74.6166C45.3182 74.9366 45.7638 75.3959 46.065 75.946C46.3564 76.5115 46.5084 77.1374 46.5084 77.7724C46.5084 78.4074 46.3564 79.0333 46.065 79.5988C45.7803 80.14 45.3534 80.5951 44.8293 80.9161C44.2743 81.2281 43.647 81.3921 43.0088 81.3921C42.3706 81.3921 41.7433 81.2281 41.1883 80.9161H41.16ZM44.1596 80.0472C44.5352 79.8241 44.8393 79.5002 45.0368 79.113C45.2619 78.6795 45.3793 78.1991 45.3793 77.7117C45.3793 77.2242 45.2619 76.7438 45.0368 76.3103C44.8393 75.9232 44.5352 75.5993 44.1596 75.3761C43.7801 75.2005 43.3589 75.1326 42.9428 75.1799C42.5248 75.1765 42.1138 75.2863 41.7543 75.4976C41.3759 75.7202 41.0685 76.044 40.8676 76.4318C40.6425 76.8653 40.5251 77.3457 40.5251 77.8331C40.5251 78.3206 40.6425 78.801 40.8676 79.2345C41.0685 79.6223 41.3759 79.9461 41.7543 80.1687C42.1138 80.3799 42.5248 80.4898 42.9428 80.4863C43.3829 80.4604 43.8058 80.3078 44.1596 80.0472Z" stroke="black" stroke-width="0.2"></path><path d="M48.857 83.7187C48.3633 83.3931 47.9893 82.9179 47.7911 82.3641L48.8287 81.925C48.9832 82.3052 49.2494 82.6307 49.5928 82.8593C49.963 83.1142 50.4059 83.2452 50.8567 83.233C51.1579 83.2518 51.4598 83.2093 51.7437 83.1081C52.0276 83.0069 52.2875 82.849 52.5075 82.6444C52.7124 82.4163 52.8696 82.1503 52.97 81.8616C53.0704 81.573 53.112 81.2675 53.0923 80.9628V80.1967H53.0357C52.8025 80.5575 52.477 80.8508 52.0924 81.0469C51.6183 81.2824 51.0912 81.394 50.5613 81.3711C50.0314 81.3482 49.5162 81.1916 49.0645 80.9161C48.5714 80.6094 48.1707 80.177 47.9043 79.6642C47.6059 79.0865 47.4568 78.4445 47.4704 77.7958C47.4596 77.1473 47.6085 76.5059 47.9043 75.9273C48.1651 75.4008 48.5663 74.9549 49.0645 74.6381C49.5162 74.3626 50.0314 74.2059 50.5613 74.183C51.0912 74.1602 51.6183 74.2718 52.0924 74.5073C52.4795 74.704 52.8055 75.001 53.0357 75.3668H53.0923V74.4325H54.1865V80.9721C54.2144 81.414 54.1519 81.8569 54.0028 82.2743C53.8536 82.6917 53.6209 83.075 53.3187 83.4011C52.6587 83.9903 51.7915 84.2989 50.9039 84.2606C50.1802 84.3062 49.4613 84.1159 48.857 83.7187ZM51.9792 80.0566C52.3314 79.8252 52.6122 79.5019 52.7904 79.1224C52.9921 78.6822 53.0964 78.2044 53.0964 77.721C53.0964 77.2376 52.9921 76.7598 52.7904 76.3197C52.6193 75.9356 52.337 75.6105 51.9792 75.3854C51.642 75.1796 51.2528 75.0727 50.8567 75.0771C50.4563 75.0716 50.0628 75.182 49.7248 75.3948C49.3756 75.6121 49.0921 75.9187 48.9042 76.2823C48.7013 76.7222 48.5963 77.2001 48.5963 77.6836C48.5963 78.1672 48.7013 78.6451 48.9042 79.085C49.0806 79.4685 49.3657 79.7931 49.7248 80.0192C50.0656 80.2249 50.4577 80.3317 50.8567 80.3275C51.2491 80.3432 51.6381 80.2494 51.9792 80.0566Z" stroke="black" stroke-width="0.2"></path><path d="M55.8749 71.6112H57.0162V81.1777H55.8749V71.6112Z" stroke="black" stroke-width="0.2"></path><path d="M60.0158 80.9254C59.4955 80.6275 59.0705 80.1904 58.7896 79.6642C58.4908 79.0866 58.3417 78.4446 58.3557 77.7958C58.3404 77.15 58.4794 76.5098 58.7613 75.9273C59.0298 75.4085 59.4296 74.9675 59.9215 74.6474C60.4445 74.3151 61.0547 74.1429 61.676 74.1523C62.2917 74.1358 62.8997 74.2912 63.4304 74.6007C63.921 74.8966 64.3167 75.3242 64.5718 75.8339C64.844 76.3961 64.9796 77.0135 64.9679 77.6369C64.984 77.7516 64.984 77.8679 64.9679 77.9826H59.497C59.5124 78.4426 59.642 78.8918 59.8743 79.2905C60.0811 79.6309 60.3779 79.9087 60.7327 80.094C61.0668 80.2698 61.4391 80.3628 61.8175 80.3649C62.2403 80.3722 62.6564 80.2601 63.0172 80.0417C63.3781 79.8233 63.6686 79.5077 63.8549 79.1317L64.7982 79.5988C64.5209 80.1362 64.1041 80.5909 63.5908 80.9161C63.0418 81.2257 62.4209 81.3885 61.7892 81.3885C61.1574 81.3885 60.5365 81.2257 59.9875 80.9161L60.0158 80.9254ZM63.7889 77.0484C63.7681 76.7523 63.6879 76.4633 63.5531 76.1982C63.3963 75.8991 63.1577 75.6498 62.8645 75.4789C62.5148 75.2709 62.112 75.1671 61.7043 75.1799C61.1982 75.1682 60.7075 75.3526 60.3365 75.6937C59.9501 76.0548 59.692 76.53 59.6008 77.0484H63.7889Z" stroke="black" stroke-width="0.2"></path><path d="M69.1277 71.6112H72.382C72.9047 71.6075 73.4201 71.7327 73.8818 71.9755C74.3427 72.2065 74.7333 72.5548 75.0137 72.9845C75.2892 73.4268 75.435 73.9362 75.435 74.4559C75.435 74.9756 75.2892 75.485 75.0137 75.9273C74.7437 76.3521 74.3666 76.6999 73.9195 76.9363C73.4578 77.1791 72.9424 77.3043 72.4197 77.3006H70.2974V81.1963H69.1655L69.1277 71.6112ZM72.4103 76.1982C72.7424 76.2033 73.0692 76.1159 73.3536 75.946C73.6169 75.7817 73.8368 75.5575 73.995 75.292C74.143 75.0344 74.2208 74.743 74.2208 74.4465C74.2208 74.1501 74.143 73.8587 73.995 73.6011C73.8368 73.3356 73.6169 73.1114 73.3536 72.9471C73.0692 72.7772 72.7424 72.6898 72.4103 72.6949H70.2974V76.1982H72.4103Z" stroke="black" stroke-width="0.2"></path><path d="M77.6926 81.1029C77.3059 80.9272 76.9785 80.6451 76.7493 80.2901C76.5316 79.9393 76.4203 79.534 76.4286 79.1224C76.4144 78.7954 76.4819 78.47 76.6251 78.1751C76.7682 77.8801 76.9826 77.6247 77.2492 77.4314C77.8684 77.0182 78.6074 76.818 79.3527 76.8615C79.7402 76.8597 80.1265 76.9036 80.5035 76.9923C80.7898 77.0579 81.0659 77.1616 81.3241 77.3006V76.8615C81.3335 76.6306 81.29 76.4005 81.1969 76.1886C81.1038 75.9766 80.9635 75.7883 80.7865 75.6377C80.404 75.3217 79.9163 75.1585 79.4187 75.1799C79.0488 75.1738 78.6829 75.2571 78.3528 75.4228C78.04 75.581 77.7761 75.8198 77.5888 76.1141L76.721 75.4695C77.0032 75.0671 77.387 74.745 77.8341 74.5353C78.3246 74.2995 78.8641 74.1811 79.4093 74.1896C80.212 74.1447 81.0016 74.4054 81.6165 74.9183C81.8803 75.1684 82.088 75.4707 82.2261 75.8055C82.3643 76.1402 82.4297 76.5 82.4183 76.8615V81.1777H81.3241V80.2434H81.2675C81.0478 80.5928 80.7429 80.882 80.3809 81.0842C79.975 81.3193 79.5115 81.4389 79.0414 81.4299C78.5721 81.4276 78.1099 81.3156 77.6926 81.1029ZM80.2299 80.0939C80.5587 79.9022 80.8343 79.6326 81.0317 79.3092C81.2239 78.9798 81.3248 78.6059 81.3241 78.2255C81.0795 78.0707 80.8122 77.9541 80.5318 77.8798C80.2043 77.8045 79.8676 77.7762 79.5319 77.7958C79.0268 77.757 78.5236 77.8923 78.1076 78.1788C77.9548 78.2972 77.8319 78.4491 77.7484 78.6226C77.6649 78.796 77.6232 78.9863 77.6265 79.1784C77.6184 79.3571 77.6535 79.5352 77.729 79.6977C77.8044 79.8602 77.9181 80.0025 78.0604 80.1126C78.3739 80.3495 78.7605 80.4717 79.1546 80.4583C79.5405 80.4393 79.9132 80.313 80.2299 80.0939Z" stroke="black" stroke-width="0.2"></path><path d="M83.8143 74.4699H84.9085V75.5536H84.9651C85.1235 75.1589 85.4129 74.8293 85.7858 74.6194C86.3229 74.3158 86.952 74.2131 87.5591 74.3298V75.4882C87.3543 75.4468 87.1455 75.428 86.9365 75.4322C86.6713 75.4241 86.4074 75.4715 86.162 75.5713C85.9166 75.6711 85.6952 75.8211 85.5122 76.0114C85.3262 76.2126 85.1822 76.4483 85.0883 76.7048C84.9944 76.9613 84.9526 77.2336 84.9651 77.5061V81.2431H83.8143V74.4699ZM90.7945 81.2524C90.5715 81.1763 90.3685 81.0518 90.2002 80.888C90.0241 80.7192 89.8859 80.5154 89.7946 80.2901C89.6966 80.0241 89.6518 79.7417 89.6626 79.4587V75.3948H88.4552V74.3671H89.6626V72.4426H90.8039V74.3671H92.4829V75.3948H90.8039V79.1877C90.7825 79.4868 90.8586 79.7848 91.0209 80.0379C91.1152 80.139 91.2309 80.2183 91.3597 80.2699C91.4885 80.3216 91.6273 80.3445 91.766 80.3369C92.0338 80.3334 92.2952 80.2557 92.5207 80.1126V81.215C92.3886 81.2783 92.2492 81.3254 92.1056 81.3552C91.9299 81.3719 91.7531 81.3719 91.5774 81.3552C91.3122 81.3693 91.0468 81.3344 90.7945 81.2524Z" stroke="black" stroke-width="0.2"></path><path d="M93.7846 74.3671H94.8788V75.3668H94.9354C95.1613 74.9976 95.4884 74.6995 95.8787 74.5073C96.2788 74.274 96.7349 74.1514 97.1992 74.1523C97.5466 74.1307 97.8946 74.1829 98.22 74.3053C98.5453 74.4278 98.8405 74.6177 99.0858 74.8623C99.5446 75.408 99.7773 76.1058 99.7366 76.8148V81.1777H98.5953V76.983C98.6189 76.7355 98.5909 76.486 98.513 76.2497C98.4351 76.0135 98.309 75.7956 98.1425 75.6097C97.7973 75.3092 97.3468 75.1549 96.888 75.1799C96.5331 75.1758 96.1862 75.2838 95.8975 75.4882C95.6057 75.6943 95.372 75.9709 95.2184 76.2916C95.0539 76.6195 94.9699 76.9812 94.9731 77.3473V81.1777H93.7846V74.3671Z" stroke="black" stroke-width="0.2"></path><path d="M102.651 80.9254C102.131 80.6275 101.706 80.1904 101.425 79.6642C101.126 79.0866 100.977 78.4446 100.991 77.7958C100.985 77.1477 101.133 76.5074 101.425 75.9273C101.688 75.3917 102.092 74.9365 102.595 74.61C103.116 74.2752 103.728 74.1027 104.349 74.1149C104.965 74.1009 105.572 74.2561 106.104 74.5633C106.594 74.8592 106.99 75.2868 107.245 75.7965C107.517 76.3587 107.653 76.9762 107.641 77.5996C107.653 77.7145 107.653 77.8303 107.641 77.9452H102.199C102.214 78.4053 102.344 78.8545 102.576 79.2531C102.78 79.5954 103.078 79.8738 103.434 80.0566C103.768 80.2325 104.141 80.3254 104.519 80.3275C104.942 80.3348 105.358 80.2228 105.719 80.0044C106.08 79.786 106.37 79.4703 106.556 79.0943L107.5 79.5614C107.222 80.0989 106.806 80.5535 106.292 80.8787C105.743 81.1883 105.122 81.3511 104.491 81.3511C103.904 81.3511 103.253 81.2571 102.651 80.9254ZM106.424 77.0484C106.405 76.7509 106.321 76.4611 106.179 76.1982C106.029 75.8977 105.793 75.6475 105.5 75.4789C105.15 75.2709 104.747 75.1671 104.34 75.1799C103.831 75.1697 103.338 75.3537 102.963 75.6937C102.582 76.0595 102.325 76.5326 102.227 77.0484H106.424Z" stroke="black" stroke-width="0.2"></path><path d="M108.971 74.3671H110.065V75.4602H110.122C110.268 75.0725 110.54 74.7439 110.895 74.526C111.254 74.2836 111.678 74.1534 112.112 74.1523C112.39 74.1422 112.667 74.1932 112.923 74.3017V75.5162C112.629 75.3761 112.307 75.3027 111.98 75.3014C111.644 75.2932 111.313 75.3914 111.037 75.5816C110.752 75.7735 110.522 76.0339 110.367 76.3384C110.2 76.6552 110.116 77.0085 110.122 77.366V81.1777H108.971V74.3671Z" stroke="black" stroke-width="0.2"></path><path d="M33.0386 109.051H35.6933C36.1277 109.045 36.5569 109.146 36.9415 109.346C37.3227 109.534 37.6449 109.821 37.8729 110.177C38.0922 110.537 38.2081 110.95 38.2081 111.371C38.2081 111.792 38.0922 112.205 37.8729 112.566C37.6449 112.922 37.3227 113.209 36.9415 113.396C36.5569 113.596 36.1277 113.698 35.6933 113.691H34.2402V116.644H33.0386V109.051ZM35.7119 112.566C35.9525 112.572 36.1905 112.515 36.4012 112.4C36.581 112.293 36.7297 112.141 36.8325 111.96C36.9354 111.779 36.989 111.574 36.988 111.367C36.9885 111.166 36.9372 110.97 36.839 110.795C36.7386 110.609 36.5867 110.455 36.4012 110.352C36.1905 110.237 35.9525 110.179 35.7119 110.186H34.2402V112.566H35.7119Z" fill="white"></path><path d="M39.1956 109.051H41.9155C42.3501 109.043 42.7798 109.144 43.1636 109.346C43.5501 109.526 43.8742 109.815 44.0951 110.177C44.3173 110.534 44.4305 110.947 44.4211 111.367C44.4302 111.866 44.2546 112.352 43.9274 112.732C43.6054 113.119 43.1689 113.397 42.6793 113.525V113.581L44.7099 116.579V116.644H43.322L41.2914 113.673H40.3599V116.644H39.1956V109.051ZM41.8596 112.566C42.2019 112.58 42.5362 112.461 42.7911 112.234C42.914 112.123 43.011 111.988 43.0754 111.836C43.1398 111.685 43.1699 111.522 43.1636 111.357C43.1641 111.157 43.1128 110.96 43.0146 110.785C42.9103 110.59 42.7529 110.428 42.5603 110.317C42.3676 110.207 42.1475 110.151 41.9248 110.158H40.3972V112.566H41.8596Z" fill="white"></path><path d="M45.5389 109.051H50.1962V110.186H46.7405V112.28H49.8516V113.405H46.7405V115.509H50.1962V116.644H45.5389V109.051Z" fill="white"></path><path d="M51.4723 109.051H53.0931L55.3006 114.808H55.3565L57.5641 109.051H59.1941V116.644H58.0205V112.391L58.0764 111.025H58.0205L55.8222 116.644H54.8908L52.7018 111.025H52.6366L52.7018 112.391V116.644H51.4723V109.051Z" fill="white"></path><path d="M60.7497 109.051H61.9513V116.644H60.7497V109.051Z" fill="white"></path><path d="M63.4789 109.051H68.1362V110.186H64.6805V112.28H67.8009V113.405H64.6805V115.509H68.1362V116.644H63.4789V109.051Z" fill="white"></path><path d="M69.4123 109.051H72.1135C72.5511 109.043 72.9835 109.145 73.371 109.346C73.7436 109.538 74.055 109.828 74.2705 110.185C74.4859 110.542 74.597 110.951 74.5912 111.367C74.5969 111.867 74.4181 112.353 74.0883 112.732C73.7662 113.119 73.3297 113.397 72.8401 113.525V113.581L74.9359 116.579V116.644H73.5853L71.564 113.673H70.6325V116.644H69.4123V109.051ZM72.0856 112.566C72.4283 112.582 72.7633 112.462 73.0171 112.234C73.1412 112.124 73.2396 111.989 73.3056 111.837C73.3715 111.686 73.4034 111.522 73.399 111.357C73.3958 111.157 73.3413 110.96 73.2406 110.785C73.1414 110.599 72.9934 110.443 72.8121 110.333C72.6125 110.215 72.3834 110.154 72.1508 110.158H70.6139V112.566H72.0856Z" fill="white"></path><path d="M77.6837 115.573L79.0343 114.236C79.705 113.571 80.1521 113.11 80.3756 112.87C80.611 112.637 80.8173 112.377 80.9904 112.095C81.1078 111.877 81.1656 111.632 81.1581 111.385C81.1608 111.249 81.133 111.113 81.0766 110.989C81.0202 110.865 80.9367 110.754 80.8321 110.665C80.5954 110.454 80.2839 110.345 79.9658 110.361C79.6652 110.346 79.3708 110.449 79.1461 110.647C78.9453 110.826 78.8027 111.061 78.7363 111.32L77.6651 110.887C77.7459 110.611 77.8821 110.353 78.0656 110.13C78.2799 109.872 78.5465 109.662 78.848 109.512C79.1993 109.334 79.5898 109.245 79.9844 109.254C80.4151 109.245 80.8412 109.343 81.2233 109.54C81.5699 109.708 81.8608 109.97 82.0616 110.296C82.2553 110.62 82.3552 110.99 82.3503 111.367C82.3526 111.788 82.2399 112.202 82.0243 112.566C81.8012 112.963 81.5221 113.326 81.1953 113.645L80.1055 114.651L79.2299 115.518V115.564H82.4249V116.625H77.6837V115.573Z" fill="white"></path><path d="M84.7628 116.311C84.2895 115.957 83.9224 115.482 83.701 114.937C83.217 113.696 83.217 112.321 83.701 111.081C83.9201 110.537 84.2878 110.064 84.7628 109.715C85.2211 109.381 85.7776 109.206 86.3463 109.217C86.9122 109.206 87.4657 109.382 87.9205 109.715C88.3928 110.065 88.7573 110.537 88.973 111.081C89.4698 112.319 89.4698 113.699 88.973 114.937C88.755 115.481 88.3911 115.957 87.9205 116.311C87.4591 116.636 86.9074 116.81 86.3417 116.81C85.776 116.81 85.2243 116.636 84.7628 116.311ZM87.3057 115.389C87.5914 115.139 87.8091 114.821 87.9391 114.466C88.0862 114.023 88.1586 113.558 88.1534 113.092C88.1578 112.622 88.0854 112.155 87.9391 111.708C87.8091 111.353 87.5914 111.036 87.3057 110.785C87.0364 110.559 86.6948 110.435 86.3417 110.435C85.9885 110.435 85.6469 110.559 85.3776 110.785C85.095 111.036 84.8805 111.354 84.7535 111.708C84.5995 112.153 84.5238 112.621 84.53 113.092C84.523 113.559 84.5987 114.025 84.7535 114.466C84.8805 114.821 85.095 115.138 85.3776 115.389C85.6443 115.62 85.9869 115.748 86.3417 115.748C86.6964 115.748 87.039 115.62 87.3057 115.389Z" fill="white"></path><path d="M90.0535 115.573C90.2864 115.352 90.7335 114.9 91.4042 114.236C92.0748 113.571 92.5219 113.11 92.7455 112.87C92.9808 112.637 93.1872 112.377 93.3602 112.095C93.4776 111.877 93.5354 111.632 93.5279 111.385C93.5306 111.249 93.5028 111.113 93.4464 110.989C93.3901 110.865 93.3065 110.754 93.2019 110.665C92.9653 110.454 92.6537 110.345 92.3356 110.361C92.0354 110.348 91.7417 110.45 91.5159 110.647C91.3152 110.827 91.1726 111.061 91.1061 111.32L90.0349 110.887C90.1157 110.611 90.252 110.353 90.4354 110.13C90.6498 109.872 90.9163 109.662 91.2179 109.512C91.5691 109.334 91.9597 109.245 92.3543 109.254C92.785 109.243 93.2114 109.342 93.5931 109.54C93.9397 109.708 94.2306 109.97 94.4314 110.296C94.6283 110.619 94.7315 110.99 94.7295 111.367C94.7284 111.789 94.6126 112.203 94.3942 112.566C94.171 112.963 93.8919 113.326 93.5652 113.645L92.4847 114.651L91.6091 115.518V115.564H94.804V116.625H90.0535V115.573Z" fill="white"></path><path d="M95.6516 115.573C95.8845 115.352 96.3316 114.9 97.0023 114.236C97.6729 113.571 98.12 113.11 98.3436 112.87C98.5789 112.637 98.7853 112.377 98.9583 112.095C99.0757 111.877 99.1335 111.632 99.126 111.385C99.1299 111.249 99.1035 111.115 99.0488 110.99C98.994 110.866 98.9123 110.755 98.8093 110.665C98.6907 110.56 98.5524 110.479 98.4021 110.427C98.2519 110.375 98.0927 110.352 97.9337 110.361C97.7863 110.353 97.6387 110.375 97.4996 110.424C97.3605 110.473 97.2327 110.549 97.1233 110.647C96.92 110.826 96.7743 111.06 96.7042 111.32L95.633 110.887C95.7178 110.612 95.8536 110.356 96.0335 110.13C96.2515 109.872 96.5211 109.662 96.8253 109.512C97.1763 109.333 97.567 109.244 97.9617 109.254C98.3923 109.245 98.8184 109.343 99.2005 109.54C99.5452 109.711 99.8339 109.975 100.033 110.301C100.233 110.628 100.335 111.003 100.328 111.385C100.325 111.806 100.213 112.219 100.002 112.584C99.7753 112.979 99.4965 113.342 99.1726 113.664L98.0921 114.651L97.1606 115.518V115.564H100.346V116.625H95.5771L95.6516 115.573Z" fill="white"></path></g><defs><clipPath id="clip0_586_9626"><rect width="133" height="126.121" fill="white" transform="translate(0 0.256348)"></rect></clipPath></defs></svg>