<svg xmlns="http://www.w3.org/2000/svg" xmlns:xlink="http://www.w3.org/1999/xlink" id="Layer_1" x="0px" y="0px" viewBox="0 0 229 202" style="enable-background:new 0 0 229 202;" xml:space="preserve"><style type="text/css">	.st0{fill:none;}	.st1{fill-rule:evenodd;clip-rule:evenodd;fill:#F20215;}	.st2{fill:#242424;}	.st3{fill:#161616;}	.st4{fill:#FFFFFF;}	.st5{fill:#636464;}	.st6{fill-rule:evenodd;clip-rule:evenodd;fill:#FFFFFF;}</style><rect x="-10.7" y="0" class="st0" width="229" height="198.7"></rect><path class="st1" d="M208.1,144.9v53.8H180v-41.5c0-1.4-1.1-2.5-2.5-2.5c-1.4,0-2.5,1.1-2.5,2.5v41.5H47.1v-41.5 c0-1.4-1.1-2.5-2.5-2.5c-1.4,0-2.5,1.1-2.5,2.5v41.5H13.9v-46.8c0-22.2,18-40.1,40.1-40.1h24.5c-31.1-27-7.1-96.8,32.5-95.5 c39.6-1.3,63.6,68.5,32.5,95.5h31.5C193.3,111.7,208.1,126.6,208.1,144.9z"></path><path class="st2" d="M111,27.5c-40.3-1.4-61,93,0,93C172,120.5,151.3,26.1,111,27.5z"></path><path class="st3" d="M111.4,120.5v-93C151.7,26.1,172.4,120.5,111.4,120.5z"></path><path class="st4" d="M109.9,197.5v-3.1h3.1v3.1C109.9,197.5,112.9,197.5,109.9,197.5z M109.9,191.8v-3.1h3.1v3.1 C109.9,191.8,112.9,191.8,109.9,191.8z M109.9,186V183h3.1v3.1C109.9,186,112.9,186,109.9,186z M109.9,180.3v-3.1h3.1v3.1 C109.9,180.3,112.9,180.3,109.9,180.3z M109.9,174.6v-3.1h3.1v3.1C109.9,174.6,112.9,174.6,109.9,174.6z M109.9,168.9v-3.1h3.1v3.1 C109.9,168.9,112.9,168.9,109.9,168.9z M109.9,163.1v-3.1h3.1v3.1C109.9,163.1,112.9,163.1,109.9,163.1z M109.9,157.4v-3.1h3.1v3.1 C109.9,157.4,112.9,157.4,109.9,157.4z M109.9,151.7v-3.1h3.1v3.1C109.9,151.7,112.9,151.7,109.9,151.7z M109.9,145.9v-3.1h3.1v3.1 C109.9,145.9,112.9,145.9,109.9,145.9z M109.9,140.2v-3.1h3.1v3.1C109.9,140.2,112.9,140.2,109.9,140.2z M109.9,134.5v-3.1h3.1v3.1 C109.9,134.5,112.9,134.5,109.9,134.5z M109.9,128.7v-3.1h3.1v3.1C109.9,128.7,112.9,128.7,109.9,128.7z M109.9,123V120h3.1v3.1 C109.9,123,112.9,123,109.9,123z"></path><path class="st5" d="M100.1,132.2c0,2.2-1.7,3.9-3.9,3.9s-3.9-1.7-3.9-3.9c0-2.2,1.7-3.9,3.9-3.9S100.1,130.1,100.1,132.2z"></path><path class="st5" d="M129.1,132.2c0,2.2-1.7,3.9-3.9,3.9c-2.2,0-3.9-1.7-3.9-3.9c0-2.2,1.7-3.9,3.9-3.9 C127.4,128.3,129.1,130.1,129.1,132.2z"></path><path class="st4" d="M97.4,131.1h-2.5c-0.7,0-1.2,0.6-1.2,1.2v44.4c0,0.7,0.6,1.2,1.2,1.2h2.5c0.7,0,1.2-0.6,1.2-1.2v-44.4 C98.6,131.7,98.1,131.1,97.4,131.1z"></path><path class="st4" d="M126.5,131.1H124c-0.7,0-1.2,0.6-1.2,1.2v44.4c0,0.7,0.6,1.2,1.2,1.2h2.5c0.7,0,1.2-0.6,1.2-1.2v-44.4 C127.7,131.7,127.1,131.1,126.5,131.1z"></path><path class="st6" d="M144.3,138.9c0,0.2-0.1,0.4-0.2,0.5c0.2,3.9,1.4,9.1,8.8,3.3l0,0c0-0.3,0.3-0.5,0.6-0.5c0.3,0,0.6,0.3,0.6,0.6 c0,0.1-0.1,0.3-0.1,0.4c0.1,0.2,0.2,1,0.3,2.7c0.2,2.6,0.9,7,4,3.2c0.1-0.2,0.5-0.6,0.7-0.8l0,0c0-0.1,0-0.1,0-0.2 c0-0.3,0.2-0.5,0.5-0.5s0.5,0.2,0.5,0.5c0,0.2-0.1,0.4-0.3,0.5c0,0.1-0.1,0.6-0.3,1.5l-1.1,4.4l-1.3,3.4c0,0.3,0,0.9-0.5,1.2 c-0.2,0.3-1.1,0.9-2.6,0.8c-7.2-0.1-21.3-7-21.3-11.4c0-0.3,0-0.9,0.5-1.2l1.8-3.8l0.2-0.3l0.2-0.3l0.2-0.5l0.2-0.4 c0.4-0.8,1.2-2.4,1.3-2.5c0-0.1,0-0.1,0-0.2c0-0.3,0.2-0.5,0.5-0.5s0.5,0.2,0.5,0.5c0,0.2-0.1,0.4-0.4,0.5c-0.2,0.8-0.7,2.6-0.3,3.1 c0,0,0.1,0,0.1,0c0.1-0.1,0.4-0.4,0.7-0.1c0.3-0.1,1.5-0.7,3.7-2.8c0.3-0.3,1-1,1.5-1.3c0-0.3,0.3-0.6,0.6-0.6 C144,138.3,144.3,138.6,144.3,138.9z M137.6,147.9c0.7,0.1,2.4,0.5,4,1C140.4,149.9,137.8,151.2,137.6,147.9z M143.9,149.7 c1.2,0.4,3.9,1.6,5.7,2.7C147.9,154.1,144.4,155.8,143.9,149.7z M152.4,154.1c0.4,0.3,1.3,1,1.8,1.5 C153.7,156,152.7,156.2,152.4,154.1z"></path></svg>